<?xml version="1.0" encoding="UTF-8"?>
<svg id="Layer_2" data-name="Layer 2" xmlns="http://www.w3.org/2000/svg" width="837.0066" height="1192.4994" xmlns:xlink="http://www.w3.org/1999/xlink" viewBox="0 0 837.0066 1192.4994">
  <defs>
    <style>
      .cls-1 {
        fill: #fff;
      }

      .cls-2 {
        fill: #333;
      }
    </style>
    <symbol id="Black_2" data-name="Black 2" viewBox="0 0 159.7624 181.8558">
      <path d="M114.7798,109.0686c52.7794-19.861,44.5122-59.9095,44.5122-59.9095,0,0-1.6797-49.1591-74.7469-49.1591C48.57,0,28.7155,9.2488,17.7848,20.0519H92.2293v6.3455H12.4184c-.8456,1.211-1.6011,2.4223-2.2768,3.6253h62.9569v10.1528H6.0185c-2.0269,7.6333-1.3259,13.2918-1.3259,13.2918l50.6898,11.0413s5.6468-17.0292,26.9231-17.0292,19.5966,14.2775,19.5966,14.2775c0,0-4.1993,10.3582-29.6748,20.9963C46.7517,93.3913,0,114.9476,0,138.1835v43.6723H159.292v-30.0622H50.9043v-10.828h108.3877v-6.7015H72.2273s-.7172-8.9131,42.5525-25.1956Z"/>
    </symbol>
    <symbol id="Spade" viewBox="0 0 285.5324 271.7601">
      <g>
        <polygon points="285.5324 183.2928 242.6122 97.1964 172.6183 128.7681 224.9795 83.6053 142.7661 0 60.5528 83.6053 112.9141 128.7681 42.9201 97.1964 0 183.2928 87.0237 212.3293 112.9141 167.8122 95.6276 271.7601 142.7661 271.7601 189.9048 271.7601 172.6183 167.8122 198.5087 212.3293 285.5324 183.2928"/>
        <polygon class="cls-2" points="142.7661 0 112.9141 128.7681 60.5528 83.6053 142.7661 0"/>
        <polygon class="cls-2" points="142.7661 0 142.7661 271.7601 189.9048 271.7601 172.6183 167.8122 198.5087 212.3293 285.5324 183.2928 242.6122 97.1964 172.6183 128.7681 142.7661 0"/>
      </g>
    </symbol>
  </defs>
  <g id="Layer_5" data-name="Layer 5">
    <rect class="cls-1" width="837.0066" height="1192.4994" rx="71.1963" ry="71.1963"/>
    <use width="159.7624" height="181.8558" transform="translate(27.9715 47.5358)" xlink:href="#Black_2"/>
    <use width="285.5324" height="271.7601" transform="translate(40.4199 251.4599) scale(.4513)" xlink:href="#Spade"/>
    <use width="159.7624" height="181.8558" transform="translate(804.8089 1124.5151) rotate(-180)" xlink:href="#Black_2"/>
    <use width="285.5324" height="271.7601" transform="translate(792.3605 920.591) rotate(-180) scale(.4513)" xlink:href="#Spade"/>
    <use width="285.5324" height="271.7601" transform="translate(510.8121 1008.4474) rotate(-180) scale(.6466)" xlink:href="#Spade"/>
    <use width="285.5324" height="271.7601" transform="translate(326.1945 172.9038) scale(.6466)" xlink:href="#Spade"/>
  </g>
</svg>