<?xml version="1.0" encoding="UTF-8"?>
<svg id="Layer_2" data-name="Layer 2" xmlns="http://www.w3.org/2000/svg" width="837.0066" height="1192.4994" xmlns:xlink="http://www.w3.org/1999/xlink" viewBox="0 0 837.0066 1192.4994">
  <defs>
    <style>
      .cls-1 {
        fill: #fff;
      }

      .cls-2 {
        fill: #a85c5c;
      }

      .cls-3 {
        fill: #cc2121;
      }
    </style>
    <symbol id="Heart" viewBox="0 0 256.5537 261.0955">
      <g>
        <polygon class="cls-3" points="190.097 0 128.2769 50.9069 66.4567 0 0 57.2711 128.2769 261.0955 256.5537 57.2711 190.097 0"/>
        <polyline class="cls-2" points="66.4567 0 128.2769 261.0955 128.2769 50.9069"/>
        <polygon class="cls-2" points="190.097 0 128.2769 261.0955 256.5537 57.2711 190.097 0"/>
      </g>
    </symbol>
    <symbol id="Red_2" data-name="Red 2" viewBox="0 0 159.7624 181.8558">
      <path class="cls-3" d="M114.7798,109.0686c52.7794-19.861,44.5122-59.9095,44.5122-59.9095,0,0-1.6797-49.1591-74.7469-49.1591C48.57,0,28.7155,9.2488,17.7848,20.0519H92.2293v6.3455H12.4184c-.8456,1.211-1.6011,2.4223-2.2768,3.6253h62.9569v10.1528H6.0185c-2.0269,7.6333-1.3259,13.2918-1.3259,13.2918l50.6898,11.0413s5.6468-17.0292,26.9231-17.0292,19.5966,14.2775,19.5966,14.2775c0,0-4.1993,10.3582-29.6748,20.9963C46.7517,93.3913,0,114.9476,0,138.1835v43.6723H159.292v-30.0622H50.9043v-10.828h108.3877v-6.7015H72.2273s-.7172-8.9131,42.5525-25.1956Z"/>
    </symbol>
  </defs>
  <g id="Layer_5" data-name="Layer 5">
    <rect class="cls-1" x="0" width="837.0066" height="1192.4994" rx="71.1963" ry="71.1963"/>
    <use width="159.7624" height="181.8558" transform="translate(27.9715 47.5358)" xlink:href="#Red_2"/>
    <use width="159.7624" height="181.8558" transform="translate(804.8089 1124.5151) rotate(-180)" xlink:href="#Red_2"/>
    <use width="256.5537" height="261.0955" transform="translate(46.9591 253.8665) scale(.4513)" xlink:href="#Heart"/>
    <use width="256.5537" height="261.0955" transform="translate(785.8212 918.1844) rotate(-180) scale(.4513)" xlink:href="#Heart"/>
    <use width="256.5537" height="261.0955" transform="translate(501.4437 1004.9997) rotate(-180) scale(.6466)" xlink:href="#Heart"/>
    <use width="256.5537" height="261.0955" transform="translate(335.563 176.3516) scale(.6466)" xlink:href="#Heart"/>
  </g>
</svg>