<?xml version="1.0" encoding="UTF-8"?>
<svg id="Layer_2" data-name="Layer 2" xmlns="http://www.w3.org/2000/svg" width="837.0066" height="1192.4994" xmlns:xlink="http://www.w3.org/1999/xlink" viewBox="0 0 837.0066 1192.4994">
  <defs>
    <style>
      .cls-1 {
        fill: #fff;
      }

      .cls-2 {
        fill: #333;
      }
    </style>
    <symbol id="Black_4" data-name="Black 4" viewBox="0 0 150 177.0669">
      <polygon points="134.6416 102.6004 134.6416 0 73.2083 0 8.7311 90.3639 30.8161 90.3639 76.9604 25.945 76.9604 102.6004 41.972 102.6004 22.0508 102.6004 0 102.6004 0 132.6547 85.5459 132.6547 85.5459 139.7743 0 139.7743 0 144.7125 80.8874 144.7125 80.8874 177.0669 135.6655 177.0669 135.6655 146.4773 150 146.4773 150 102.6004 134.6416 102.6004"/>
    </symbol>
    <symbol id="Club" viewBox="0 0 252.1667 232.5147">
      <g>
        <polygon points="178.7168 193.0545 252.1667 119.6046 126.0834 0 0 119.6046 73.4499 193.0545 101.8507 164.6538 70.0905 232.5147 126.0834 232.5147 182.0762 232.5147 150.3161 164.6538 178.7168 193.0545"/>
        <polygon class="cls-2" points="126.0834 0 73.4499 193.0545 101.8507 164.6538 70.0905 232.5147 126.0834 232.5147 126.0834 0"/>
        <polygon class="cls-2" points="126.0834 0 178.7168 193.0545 252.1667 119.6046 126.0834 0"/>
      </g>
    </symbol>
  </defs>
  <g id="Layer_5" data-name="Layer 5">
    <rect class="cls-1" x="0" width="837.0066" height="1192.4994" rx="71.1963" ry="71.1963"/>
    <use width="150" height="177.0669" transform="translate(42.5934 49.9303)" xlink:href="#Black_4"/>
    <use width="150" height="177.0669" transform="translate(790.1869 1122.1206) rotate(-180)" xlink:href="#Black_4"/>
    <use width="252.1667" height="232.5147" transform="translate(47.9491 260.316) scale(.4513)" xlink:href="#Club"/>
    <use width="252.1667" height="232.5147" transform="translate(186.5216 176.2911) scale(.6466)" xlink:href="#Club"/>
    <use width="252.1667" height="232.5147" transform="translate(349.5658 986.4595) rotate(-180) scale(.6466)" xlink:href="#Club"/>
    <use width="252.1667" height="232.5147" transform="translate(784.8313 911.7349) rotate(-180) scale(.4513)" xlink:href="#Club"/>
    <use width="252.1667" height="232.5147" transform="translate(646.2587 995.7598) rotate(-180) scale(.6466)" xlink:href="#Club"/>
    <use width="252.1667" height="232.5147" transform="translate(483.2145 185.5914) scale(.6466)" xlink:href="#Club"/>
  </g>
</svg>