<?xml version="1.0" encoding="UTF-8"?>
<svg id="Layer_2" data-name="Layer 2" xmlns="http://www.w3.org/2000/svg" width="837.0066" height="1192.4994" xmlns:xlink="http://www.w3.org/1999/xlink" viewBox="0 0 837.0066 1192.4994">
  <defs>
    <style>
      .cls-1 {
        fill: #fff;
      }

      .cls-2 {
        fill: #333;
      }
    </style>
    <symbol id="Black_5" data-name="Black 5" viewBox="0 0 158.7974 180.7278">
      <path d="M157.5299,106.4465c-11.2746-64.8284-100.5309-42.1738-100.5309-42.1738l3.1317-15.7647h82.9929v-4.7619H44.4299v-10.5329h98.6936V0H17.3251L0,102.6004H62.3228s-.9394-7.7416,19.1042-9.3075c20.0435-1.5659,18.1643,18.7908,18.1643,18.7908,0,0-2.1921,19.7304-20.1927,19.7304s-25.5317-14.0932-25.5317-14.0932L0,133.38c10.648,56.6858,101.1573,46.6639,101.1573,46.6639,0,0,67.6471-8.7691,56.3725-73.5974Z"/>
    </symbol>
    <symbol id="Spade" viewBox="0 0 285.5324 271.7601">
      <g>
        <polygon points="285.5324 183.2928 242.6122 97.1964 172.6183 128.7681 224.9795 83.6053 142.7661 0 60.5528 83.6053 112.9141 128.7681 42.9201 97.1964 0 183.2928 87.0237 212.3293 112.9141 167.8122 95.6276 271.7601 142.7661 271.7601 189.9048 271.7601 172.6183 167.8122 198.5087 212.3293 285.5324 183.2928"/>
        <polygon class="cls-2" points="142.7661 0 112.9141 128.7681 60.5528 83.6053 142.7661 0"/>
        <polygon class="cls-2" points="142.7661 0 142.7661 271.7601 189.9048 271.7601 172.6183 167.8122 198.5087 212.3293 285.5324 183.2928 242.6122 97.1964 172.6183 128.7681 142.7661 0"/>
      </g>
    </symbol>
  </defs>
  <g id="Layer_5" data-name="Layer 5">
    <rect class="cls-1" y="0" width="837.0066" height="1192.4994" rx="71.1963" ry="71.1963"/>
    <use width="158.7974" height="180.7278" transform="translate(28.454 48.0998)" xlink:href="#Black_5"/>
    <use width="285.5324" height="271.7601" transform="translate(40.4199 251.4599) scale(.4513)" xlink:href="#Spade"/>
    <use width="285.5324" height="271.7601" transform="translate(175.7349 163.6035) scale(.6466)" xlink:href="#Spade"/>
    <use width="285.5324" height="271.7601" transform="translate(360.3525 999.1471) rotate(-180) scale(.6466)" xlink:href="#Spade"/>
    <use width="285.5324" height="271.7601" transform="translate(326.1945 508.3933) scale(.6466)" xlink:href="#Spade"/>
    <use width="158.7974" height="180.7278" transform="translate(804.3264 1123.9511) rotate(-180)" xlink:href="#Black_5"/>
    <use width="285.5324" height="271.7601" transform="translate(792.3605 920.591) rotate(-180) scale(.4513)" xlink:href="#Spade"/>
    <use width="285.5324" height="271.7601" transform="translate(657.0454 1008.4474) rotate(-180) scale(.6466)" xlink:href="#Spade"/>
    <use width="285.5324" height="271.7601" transform="translate(472.4278 172.9038) scale(.6466)" xlink:href="#Spade"/>
  </g>
</svg>