<?xml version="1.0" encoding="UTF-8"?>
<svg id="Layer_2" data-name="Layer 2" xmlns="http://www.w3.org/2000/svg" width="837.0066" height="1192.4994" xmlns:xlink="http://www.w3.org/1999/xlink" viewBox="0 0 837.0066 1192.4994">
  <defs>
    <style>
      .cls-1 {
        fill: #fff;
      }

      .cls-2 {
        fill: #333;
      }
    </style>
    <symbol id="Blac_7" data-name="Blac 7" viewBox="0 0 142.5592 177.8389">
      <g>
        <polygon points="9.4485 177.8389 69.888 177.8389 120.0591 88.9219 60.3372 88.9219 9.4485 177.8389"/>
        <polygon points="142.5592 0 0 0 0 36.2279 111.5469 36.2279 111.5469 44.2535 0 44.2535 0 49.6041 82.8393 49.6041 65.718 79.52 125.364 79.52 142.5592 49.0453 142.5592 0"/>
        <polygon points="142.5592 88.9219 142.5592 79.52 125.364 79.52 120.0591 88.9219 142.5592 88.9219"/>
        <polygon points="30.3167 79.52 30.3167 88.9219 60.3372 88.9219 65.718 79.52 30.3167 79.52"/>
      </g>
    </symbol>
    <symbol id="Club" viewBox="0 0 252.1667 232.5147">
      <g>
        <polygon points="178.7168 193.0545 252.1667 119.6046 126.0834 0 0 119.6046 73.4499 193.0545 101.8507 164.6538 70.0905 232.5147 126.0834 232.5147 182.0762 232.5147 150.3161 164.6538 178.7168 193.0545"/>
        <polygon class="cls-2" points="126.0834 0 73.4499 193.0545 101.8507 164.6538 70.0905 232.5147 126.0834 232.5147 126.0834 0"/>
        <polygon class="cls-2" points="126.0834 0 178.7168 193.0545 252.1667 119.6046 126.0834 0"/>
      </g>
    </symbol>
  </defs>
  <g id="Layer_5" data-name="Layer 5">
    <rect class="cls-1" width="837.0066" height="1192.4994" rx="71.1963" ry="71.1963"/>
    <use width="142.5592" height="177.8389" transform="translate(36.5731 49.5443)" xlink:href="#Blac_7"/>
    <use width="142.5592" height="177.8389" transform="translate(796.2073 1122.5066) rotate(-180)" xlink:href="#Blac_7"/>
    <use width="252.1667" height="232.5147" transform="translate(47.9491 260.316) scale(.4513)" xlink:href="#Club"/>
    <use width="252.1667" height="232.5147" transform="translate(186.5216 176.2911) scale(.6466)" xlink:href="#Club"/>
    <use width="252.1667" height="232.5147" transform="translate(349.5658 986.4595) rotate(-180) scale(.6466)" xlink:href="#Club"/>
    <use width="252.1667" height="232.5147" transform="translate(186.5215 511.1678) scale(.6466)" xlink:href="#Club"/>
    <use width="252.1667" height="232.5147" transform="translate(784.8313 911.7349) rotate(-180) scale(.4513)" xlink:href="#Club"/>
    <use width="252.1667" height="232.5147" transform="translate(646.2587 995.7598) rotate(-180) scale(.6466)" xlink:href="#Club"/>
    <use width="252.1667" height="232.5147" transform="translate(483.2145 185.5914) scale(.6466)" xlink:href="#Club"/>
    <use width="252.1667" height="232.5147" transform="translate(337.2146 359.3076) scale(.6466)" xlink:href="#Club"/>
    <use width="252.1667" height="232.5147" transform="translate(483.2145 508.6295) scale(.6466)" xlink:href="#Club"/>
  </g>
</svg>