<?xml version="1.0" encoding="UTF-8"?>
<svg id="Layer_2" data-name="Layer 2" xmlns="http://www.w3.org/2000/svg" width="837.0066" height="1192.4994" xmlns:xlink="http://www.w3.org/1999/xlink" viewBox="0 0 837.0066 1192.4994">
  <defs>
    <style>
      .cls-1 {
        fill: #cd2424;
      }

      .cls-1, .cls-2, .cls-3, .cls-4, .cls-5, .cls-6, .cls-7, .cls-8, .cls-9, .cls-10, .cls-11, .cls-12, .cls-13, .cls-14, .cls-15, .cls-16 {
        stroke-miterlimit: 10;
      }

      .cls-1, .cls-3, .cls-12 {
        stroke: #fff;
      }

      .cls-1, .cls-4, .cls-5, .cls-6, .cls-7, .cls-8, .cls-9, .cls-10, .cls-11, .cls-13, .cls-14, .cls-15, .cls-16 {
        stroke-width: 5px;
      }

      .cls-17 {
        fill: url(#linear-gradient);
      }

      .cls-2 {
        fill: none;
        stroke: #cc2121;
        stroke-width: 6px;
      }

      .cls-18 {
        fill: #fff;
      }

      .cls-19 {
        fill: #a85c5c;
      }

      .cls-20, .cls-4, .cls-5, .cls-6, .cls-7, .cls-8, .cls-9 {
        fill: #cc2121;
      }

      .cls-3 {
        fill: url(#linear-gradient-3);
      }

      .cls-3, .cls-12 {
        stroke-width: 25px;
      }

      .cls-4 {
        stroke: url(#linear-gradient-28);
      }

      .cls-4, .cls-5, .cls-6, .cls-7, .cls-8, .cls-9, .cls-10, .cls-11, .cls-13, .cls-14, .cls-15, .cls-16 {
        stroke-linecap: square;
      }

      .cls-5 {
        stroke: url(#linear-gradient-26);
      }

      .cls-6 {
        stroke: url(#linear-gradient-27);
      }

      .cls-7 {
        stroke: url(#linear-gradient-13);
      }

      .cls-8 {
        stroke: url(#linear-gradient-12);
      }

      .cls-9 {
        stroke: url(#linear-gradient-14);
      }

      .cls-10 {
        fill: url(#linear-gradient-5);
        stroke: url(#linear-gradient-6);
      }

      .cls-11 {
        fill: url(#linear-gradient-7);
        stroke: url(#linear-gradient-8);
      }

      .cls-21 {
        fill: url(#linear-gradient-4);
      }

      .cls-22 {
        fill: url(#linear-gradient-2);
      }

      .cls-12 {
        fill: url(#linear-gradient-17);
      }

      .cls-13 {
        fill: url(#linear-gradient-23);
        stroke: url(#linear-gradient-24);
      }

      .cls-14 {
        fill: url(#linear-gradient-19);
        stroke: url(#linear-gradient-20);
      }

      .cls-15 {
        fill: url(#linear-gradient-21);
        stroke: url(#linear-gradient-22);
      }

      .cls-23 {
        fill: url(#linear-gradient-18);
      }

      .cls-24 {
        fill: url(#linear-gradient-15);
      }

      .cls-25 {
        fill: url(#linear-gradient-16);
      }

      .cls-26 {
        fill: url(#linear-gradient-11);
      }

      .cls-27 {
        fill: url(#linear-gradient-25);
      }

      .cls-16 {
        fill: url(#linear-gradient-9);
        stroke: url(#linear-gradient-10);
      }
    </style>
    <symbol id="Diamond" viewBox="0 0 163.1355 265.8583">
      <g>
        <polyline class="cls-20" points="81.5678 265.8583 0 134.2547 81.5678 0"/>
        <polyline class="cls-20" points="81.5678 0 163.1355 134.2547 81.5678 265.8583"/>
        <polygon class="cls-19" points="81.5678 0 81.5678 134.2547 0 134.2547 81.5678 0"/>
        <polygon class="cls-19" points="81.5678 134.2547 81.5678 265.8583 163.1355 134.2547 81.5678 134.2547"/>
      </g>
    </symbol>
    <symbol id="Red_J" data-name="Red J" viewBox="0 0 120.2059 181.989">
      <path class="cls-20" d="M62.3528,0V10.3501h48.6274v9.292H62.3528v4.2556h34.6836v9.292H62.3528v4.4821h22.4249v7.0775h-22.4249V109.5324s.6428,33.4262-41.1399,19.2844L0,177.8389s120.2059,29.401,120.2059-68.3064V0H62.3528Z"/>
    </symbol>
    <linearGradient id="linear-gradient" x1="364.3423" y1="302.6362" x2="379.2287" y2="302.6362" gradientUnits="userSpaceOnUse">
      <stop offset="0" stop-color="#ffbf94"/>
      <stop offset=".0355" stop-color="#f9ae87"/>
      <stop offset=".126" stop-color="#ed886c"/>
      <stop offset=".2238" stop-color="#e36855"/>
      <stop offset=".329" stop-color="#da4e41"/>
      <stop offset=".4444" stop-color="#d43a33"/>
      <stop offset=".575" stop-color="#cf2b28"/>
      <stop offset=".7337" stop-color="#cc2322"/>
      <stop offset="1" stop-color="#cc2121"/>
    </linearGradient>
    <linearGradient id="linear-gradient-2" x1="13243.6458" x2="13258.5322" gradientTransform="translate(13637.7608) rotate(-180) scale(1 -1)" xlink:href="#linear-gradient"/>
    <linearGradient id="linear-gradient-3" x1="17.0506" y1="328.6696" x2="337.432" y2="328.6696" xlink:href="#linear-gradient"/>
    <linearGradient id="linear-gradient-4" x1="34.066" y1="42.8193" x2="320.4167" y2="42.8193" xlink:href="#linear-gradient"/>
    <linearGradient id="linear-gradient-5" x1="74.2405" y1="42.8193" x2="135.4011" y2="42.8193" xlink:href="#linear-gradient"/>
    <linearGradient id="linear-gradient-6" x1="763.525" y1="42.8507" x2="825.0857" y2="42.8507" gradientTransform="translate(-783.8674) scale(1.1187 1)" gradientUnits="userSpaceOnUse">
      <stop offset="0" stop-color="#fceecb"/>
      <stop offset="1" stop-color="#ffda4a"/>
    </linearGradient>
    <linearGradient id="linear-gradient-7" x1="146.3139" y1="34.2655" x2="208.1689" y2="34.2655" xlink:href="#linear-gradient"/>
    <linearGradient id="linear-gradient-8" x1="828.4353" y1="34.4771" x2="889.8091" y2="34.4771" gradientTransform="translate(-783.8674) scale(1.1187 1)" gradientUnits="userSpaceOnUse">
      <stop offset="0" stop-color="#f7dd9d"/>
      <stop offset="1" stop-color="#ffda4a"/>
    </linearGradient>
    <linearGradient id="linear-gradient-9" x1="13019.0162" y1="43.8193" x2="13080.1769" y2="43.8193" gradientTransform="translate(13298.2898) rotate(-180) scale(1 -1)" xlink:href="#linear-gradient"/>
    <linearGradient id="linear-gradient-10" x1="12344.4364" y1="43.8507" x2="12405.997" y2="43.8507" gradientTransform="translate(14093.0664) rotate(-180) scale(1.1187 -1)" gradientUnits="userSpaceOnUse">
      <stop offset="0" stop-color="#ffda4f"/>
      <stop offset="1" stop-color="#ffda4a"/>
    </linearGradient>
    <linearGradient id="linear-gradient-11" x1="43.6887" y1="149.621" x2="135.4011" y2="149.621" xlink:href="#linear-gradient"/>
    <linearGradient id="linear-gradient-12" x1="333.8251" y1="61.3841" x2="424.6322" y2="61.3841" gradientTransform="matrix(1, 0, 0, 1, 0, 0)" xlink:href="#linear-gradient-6"/>
    <linearGradient id="linear-gradient-13" x1="320.2103" y1="127.0968" x2="438.2471" y2="127.0968" gradientTransform="matrix(1, 0, 0, 1, 0, 0)" xlink:href="#linear-gradient-6"/>
    <linearGradient id="linear-gradient-14" x1="320.2103" y1="158.8072" x2="438.2471" y2="158.8072" gradientTransform="matrix(1, 0, 0, 1, 0, 0)" xlink:href="#linear-gradient-6"/>
    <linearGradient id="linear-gradient-15" x1="13047.3601" y1="19454.9237" x2="13062.2465" y2="19454.9237" gradientTransform="translate(13138.2549 20082.3186) rotate(-180)" xlink:href="#linear-gradient"/>
    <linearGradient id="linear-gradient-16" x1="560.6279" y1="19454.9237" x2="575.5143" y2="19454.9237" gradientTransform="translate(-499.5059 20082.3186) scale(1 -1)" xlink:href="#linear-gradient"/>
    <linearGradient id="linear-gradient-17" x1="12700.0685" y1="19480.9571" x2="13020.4499" y2="19480.9571" gradientTransform="translate(13138.2549 20082.3186) rotate(-180)" xlink:href="#linear-gradient"/>
    <linearGradient id="linear-gradient-18" x1="12717.0839" y1="19195.1069" x2="13003.4346" y2="19195.1069" gradientTransform="translate(13138.2549 20082.3186) rotate(-180)" xlink:href="#linear-gradient"/>
    <linearGradient id="linear-gradient-19" x1="12757.2583" y1="19195.1069" x2="12818.419" y2="19195.1069" gradientTransform="translate(13138.2549 20082.3186) rotate(-180)" xlink:href="#linear-gradient"/>
    <linearGradient id="linear-gradient-20" x1="12100.7031" y1="19195.1383" x2="12162.2637" y2="19195.1383" gradientTransform="translate(13922.1223 20082.3186) rotate(-180) scale(1.1187 1)" xlink:href="#linear-gradient-6"/>
    <linearGradient id="linear-gradient-21" x1="12829.3317" y1="19186.5531" x2="12891.1867" y2="19186.5531" gradientTransform="translate(13138.2549 20082.3186) rotate(-180)" xlink:href="#linear-gradient"/>
    <linearGradient id="linear-gradient-22" x1="12165.6133" y1="19186.7647" x2="12226.9871" y2="19186.7647" gradientTransform="translate(13922.1223 20082.3186) rotate(-180) scale(1.1187 1)" xlink:href="#linear-gradient-8"/>
    <linearGradient id="linear-gradient-23" x1="335.9984" y1="19196.1069" x2="397.159" y2="19196.1069" gradientTransform="translate(-160.0349 20082.3186) scale(1 -1)" xlink:href="#linear-gradient"/>
    <linearGradient id="linear-gradient-24" x1="1007.2584" y1="19196.1383" x2="1068.819" y2="19196.1383" gradientTransform="translate(-954.8114 20082.3186) scale(1.1187 -1)" xlink:href="#linear-gradient-10"/>
    <linearGradient id="linear-gradient-25" x1="12726.7066" y1="19301.9085" x2="12818.419" y2="19301.9085" gradientTransform="translate(13138.2549 20082.3186) rotate(-180)" xlink:href="#linear-gradient"/>
    <linearGradient id="linear-gradient-26" x1="13016.843" y1="19213.6716" x2="13107.6501" y2="19213.6716" gradientTransform="translate(13138.2549 20082.3186) rotate(-180)" xlink:href="#linear-gradient-6"/>
    <linearGradient id="linear-gradient-27" x1="13003.2281" y1="19279.3844" x2="13121.2649" y2="19279.3844" gradientTransform="translate(13138.2549 20082.3186) rotate(-180)" xlink:href="#linear-gradient-6"/>
    <linearGradient id="linear-gradient-28" x1="13003.2281" y1="19311.0947" x2="13121.2649" y2="19311.0947" gradientTransform="translate(13138.2549 20082.3186) rotate(-180)" xlink:href="#linear-gradient-6"/>
    <symbol id="red_Jack" data-name="red Jack" viewBox="0 0 455.2371 930.031">
      <g>
        <g>
          <polygon class="cls-17" points="379.2287 165.6029 364.3423 172.4643 364.3423 439.6694 379.2287 439.6694 379.2287 165.6029"/>
          <polygon class="cls-22" points="379.2287 165.6029 394.1151 172.4643 394.1151 439.6694 379.2287 439.6694 379.2287 165.6029"/>
          <rect class="cls-1" x="336.432" y="370.0768" width="81.6575" height="17.3981"/>
          <rect class="cls-1" x="325.0456" y="387.475" width="108.3661" height="17.3981"/>
          <rect class="cls-1" x="329.7888" y="404.8731" width="88.5146" height="17.3981"/>
          <rect class="cls-1" x="336.432" y="422.2713" width="68.8147" height="17.3981"/>
          <polygon class="cls-3" points="252.2155 193.6069 252.2155 193.6069 194.9635 234.1809 159.4042 234.0994 102.2672 193.6069 17.0506 463.7322 176.8317 463.7322 177.651 463.7322 337.432 463.7322 252.2155 193.6069"/>
          <polygon class="cls-2" points="177.2413 78.5693 81.4863 95.2348 101.3729 181.8945 177.2413 233.2934 253.1098 181.8945 272.9964 95.2348 177.2413 78.5693"/>
          <polygon class="cls-21" points="177.2413 0 34.066 23.9194 67.8103 85.6386 177.2414 66.2186 286.6724 85.6386 320.4167 23.9194 177.2413 0"/>
          <polygon class="cls-10" points="74.2405 25.0418 93.9145 67.0961 135.4011 59.4499 118.2933 18.5425 74.2405 25.0418"/>
          <polygon class="cls-11" points="177.2414 10.2708 146.3139 15.9585 157.8191 58.2603 177.2414 54.3764 196.6636 58.2603 208.1689 15.9585 177.2414 10.2708"/>
          <polygon class="cls-16" points="279.2736 26.0418 259.5996 68.0961 218.113 60.4499 235.2209 19.5425 279.2736 26.0418"/>
          <path class="cls-26" d="M135.4011,82.8981l-57.5082,10.1952s13.3045,61.7101,4.8413,83.3988c-4.1207-2.9991-9.3745-4.8021-15.1026-4.8021-13.2233,0-23.9429,9.5821-23.9429,21.4023s10.7196,21.4023,23.9429,21.4023c4.6597,0,62.7994,27.7325,67.7695-131.5965Z"/>
          <path class="cls-20" d="M219.2317,82.8981l57.5082,10.1952s-13.3045,61.7101-4.8413,83.3988c4.1207-2.9991,9.3745-4.8021,15.1026-4.8021,13.2233,0,23.9429,9.5821,23.9429,21.4023,0,11.8201-10.7196,21.4023-23.9429,21.4023-4.6597,0-62.7994,27.7325-67.7695-131.5965Z"/>
          <polygon class="cls-8" points="379.2286 15.7664 338.3345 109.169 379.2286 96.0966 420.1229 109.169 379.2286 15.7664"/>
          <polygon class="cls-7" points="379.2287 106.4825 322.7103 124.1105 322.7103 146.7845 379.2287 126.6335 435.7471 146.7845 435.7471 124.1105 379.2287 106.4825"/>
          <polygon class="cls-9" points="379.2287 138.1928 322.7103 155.8208 322.7103 178.4948 379.2287 158.3438 435.7471 178.4948 435.7471 155.8208 379.2287 138.1928"/>
        </g>
        <g>
          <polygon class="cls-24" points="76.0084 764.4282 90.8948 757.5667 90.8948 490.3616 76.0084 490.3616 76.0084 764.4282"/>
          <polygon class="cls-25" points="76.0084 764.4282 61.122 757.5667 61.122 490.3616 76.0084 490.3616 76.0084 764.4282"/>
          <polygon class="cls-1" points="37.1476 542.556 118.805 542.556 118.805 559.9542 37.1476 559.9542 37.1476 542.556"/>
          <polygon class="cls-1" points="21.8253 525.1579 130.1915 525.1579 130.1915 542.556 21.8253 542.556 21.8253 525.1579"/>
          <polygon class="cls-1" points="36.9336 507.7598 125.4482 507.7598 125.4482 525.1579 36.9336 525.1579 36.9336 507.7598"/>
          <polygon class="cls-1" points="49.9903 490.3616 118.805 490.3616 118.805 507.7598 49.9903 507.7598 49.9903 490.3616"/>
          <polygon class="cls-12" points="203.0215 736.4242 203.0216 736.4242 260.2736 695.8501 295.8329 695.9316 352.9699 736.4242 438.1864 466.2988 278.4054 466.2988 277.586 466.2988 117.805 466.2988 203.0215 736.4242"/>
          <polygon class="cls-2" points="277.9957 851.4618 373.7507 834.7962 353.8641 748.1366 277.9957 696.7376 202.1273 748.1366 182.2407 834.7962 277.9957 851.4618"/>
          <polygon class="cls-23" points="277.9957 930.031 421.171 906.1116 387.4268 844.3924 277.9957 863.8124 168.5646 844.3924 134.8203 906.1116 277.9957 930.031"/>
          <polygon class="cls-14" points="380.9966 904.9893 361.3225 862.9349 319.8359 870.5811 336.9438 911.4886 380.9966 904.9893"/>
          <polygon class="cls-15" points="277.9957 919.7603 308.9232 914.0726 297.4179 871.7708 277.9957 875.6546 258.5734 871.7708 247.0682 914.0726 277.9957 919.7603"/>
          <polygon class="cls-13" points="175.9635 903.9893 195.6375 861.9349 237.1241 869.5811 220.0162 910.4886 175.9635 903.9893"/>
          <path class="cls-27" d="M319.8359,847.1329l57.5082-10.1952s-13.3045-61.7101-4.8413-83.3988c4.1207,2.9991,9.3745,4.8021,15.1026,4.8021,13.2233,0,23.9429-9.5821,23.9429-21.4023s-10.7196-21.4023-23.9429-21.4023c-4.6597,0-62.7994-27.7325-67.7695,131.5965Z"/>
          <path class="cls-20" d="M236.0054,847.1329l-57.5082-10.1952s13.3045-61.7101,4.8413-83.3988c-4.1207,2.9991-9.3745,4.8021-15.1026,4.8021-13.2233,0-23.9429-9.5821-23.9429-21.4023,0-11.8201,10.7196-21.4023,23.9429-21.4023,4.6597,0,62.7994-27.7325,67.7695,131.5965Z"/>
          <polygon class="cls-5" points="76.0084 914.2647 116.9026 820.8621 76.0084 833.9345 35.1142 820.8621 76.0084 914.2647"/>
          <polygon class="cls-6" points="76.0084 823.5486 132.5268 805.9206 132.5268 783.2466 76.0084 803.3976 19.49 783.2466 19.49 805.9206 76.0084 823.5486"/>
          <polygon class="cls-4" points="76.0084 791.8382 132.5268 774.2102 132.5268 751.5362 76.0084 771.6872 19.49 751.5362 19.49 774.2102 76.0084 791.8382"/>
        </g>
      </g>
    </symbol>
  </defs>
  <g id="Layer_5" data-name="Layer 5">
    <rect class="cls-18" width="837.0066" height="1192.4994" rx="71.1963" ry="71.1963"/>
    <use width="163.1355" height="265.8583" transform="translate(68.0398 273.2411) scale(.4513)" xlink:href="#Diamond"/>
    <use width="163.1355" height="265.8583" transform="translate(779.1336 887.8338) rotate(-180) scale(.4513)" xlink:href="#Diamond"/>
    <use width="455.2371" height="930.031" transform="translate(181.5807 136.1425)" xlink:href="#red_Jack"/>
    <use width="120.2059" height="181.989" transform="translate(53.0093 43.6563)" xlink:href="#Red_J"/>
    <use width="120.2059" height="181.989" transform="translate(808.4072 1084.1488) rotate(-180)" xlink:href="#Red_J"/>
  </g>
</svg>