<?xml version="1.0" encoding="UTF-8"?>
<svg id="Layer_2" data-name="Layer 2" xmlns="http://www.w3.org/2000/svg" width="837.0066" height="1192.4994" xmlns:xlink="http://www.w3.org/1999/xlink" viewBox="0 0 837.0066 1192.4994">
  <defs>
    <style>
      .cls-1 {
        fill: url(#linear-gradient);
      }

      .cls-2, .cls-3 {
        fill: #fff;
      }

      .cls-4 {
        fill: url(#linear-gradient-2);
        stroke: url(#radial-gradient);
      }

      .cls-4, .cls-3, .cls-5 {
        stroke-miterlimit: 10;
      }

      .cls-4, .cls-5 {
        stroke-width: 8px;
      }

      .cls-6 {
        fill: url(#linear-gradient-4);
      }

      .cls-7 {
        fill: url(#linear-gradient-5);
      }

      .cls-3 {
        stroke: #000;
        stroke-width: 6px;
      }

      .cls-5 {
        fill: url(#linear-gradient-3);
        stroke: #fff;
      }
    </style>
    <symbol id="Black_J" data-name="Black J" viewBox="0 0 120.2059 181.989">
      <path d="M62.3528,0V10.3501h48.6274v9.292H62.3528v4.2556h34.6836v9.292H62.3528v4.4821h22.4249v7.0775h-22.4249V109.5324s.6428,33.4262-41.1399,19.2844L0,177.8389s120.2059,29.401,120.2059-68.3064V0H62.3528Z"/>
    </symbol>
    <symbol id="Black_K" data-name="Black K" viewBox="0 0 168.5153 179.4338">
      <g>
        <rect y="0" width="57.9001" height="179.4338"/>
        <polygon points="109.1143 155.5276 109.3497 139.2324 135.4326 179.4338 146.0528 179.4338 70.8691 69.8315 38.3108 116.0379 81.2394 179.4338 123.478 179.4338 109.1143 155.5276"/>
        <polygon points="162.5865 0 100.0498 79.8368 100.3168 61.3514 147.1024 0 131.3756 0 110.5142 27.4506 110.7569 14.7477 121.9646 0 115.8002 0 50.9865 80.1402 50.9865 149.3361 77.1924 116.0379 168.5153 0 162.5865 0"/>
      </g>
    </symbol>
    <linearGradient id="linear-gradient" x1="247.7486" y1="808.9447" x2="607.2252" y2="808.9447" gradientUnits="userSpaceOnUse">
      <stop offset="0" stop-color="#aba189"/>
      <stop offset=".0128" stop-color="#a19881"/>
      <stop offset=".0713" stop-color="#7b7463"/>
      <stop offset=".1364" stop-color="#5a5448"/>
      <stop offset=".2076" stop-color="#3d3a31"/>
      <stop offset=".2871" stop-color="#27241f"/>
      <stop offset=".3786" stop-color="#151411"/>
      <stop offset=".4892" stop-color="#090807"/>
      <stop offset=".6389" stop-color="#020101"/>
      <stop offset=".9994" stop-color="#000"/>
    </linearGradient>
    <linearGradient id="linear-gradient-2" x1="208.6418" y1="717.3084" x2="624.1668" y2="717.3084" gradientUnits="userSpaceOnUse">
      <stop offset="0" stop-color="#000"/>
      <stop offset=".1458" stop-color="#000"/>
      <stop offset=".9994" stop-color="#000"/>
    </linearGradient>
    <radialGradient id="radial-gradient" cx="416.4043" cy="720.5034" fx="416.4043" fy="720.5034" r="175.2201" gradientUnits="userSpaceOnUse">
      <stop offset="0" stop-color="#fceecb"/>
      <stop offset="1" stop-color="#ffda4a"/>
    </radialGradient>
    <linearGradient id="linear-gradient-3" x1="213.6438" y1="391.7979" x2="612.3273" y2="391.7979" gradientUnits="userSpaceOnUse">
      <stop offset="0" stop-color="#aba189"/>
      <stop offset=".123" stop-color="#7e7665"/>
      <stop offset=".2509" stop-color="#575246"/>
      <stop offset=".3839" stop-color="#38342c"/>
      <stop offset=".5212" stop-color="#1f1d19"/>
      <stop offset=".6647" stop-color="#0d0c0b"/>
      <stop offset=".8182" stop-color="#030302"/>
      <stop offset=".9994" stop-color="#000"/>
    </linearGradient>
    <linearGradient id="linear-gradient-4" x1="210.7253" y1="376.4153" x2="269.0349" y2="376.4153" gradientUnits="userSpaceOnUse">
      <stop offset="0" stop-color="#fceecb"/>
      <stop offset="1" stop-color="#ffda4a"/>
    </linearGradient>
    <linearGradient id="linear-gradient-5" x1="559.8235" y1="399.2979" x2="645.6621" y2="399.2979" xlink:href="#linear-gradient-4"/>
  </defs>
  <g id="Layer_10" data-name="Layer 10">
    <rect class="cls-2" width="837.0066" height="1192.4994" rx="71.1963" ry="71.1963"/>
    <use width="120.2059" height="181.989" transform="translate(25.2522 33.7981)" xlink:href="#Black_J"/>
    <path d="M32.8379,244.1416v153.5917H163.546V244.1416H32.8379Zm83.8964,134.8058h-37.9618v-116.304h37.9618v116.304Zm28.5016-22.6833h-12.5464v-74.5243h12.5464v74.5243Z"/>
    <use width="168.5153" height="179.4338" transform="translate(32.4767 424.6062)" xlink:href="#Black_K"/>
    <polygon points="178.5295 645.5201 178.5295 639.1288 32.4767 639.1288 32.4767 792.559 178.5295 792.559 178.5295 788.735 154.7531 788.735 154.7531 787.0336 178.5295 787.0336 178.5295 776.8842 143.5905 776.8842 143.5905 783.5945 140.7609 783.5945 140.7609 779.7089 116.7345 779.7089 116.7345 773.6915 178.5295 773.6915 178.5295 766.277 78.7389 766.277 78.7389 754.8971 154.9333 754.7656 154.9684 751.1722 164.5661 751.1722 164.5661 740.0079 128.3664 740.0079 128.3664 747.8165 116.7345 747.8165 116.7345 739.3921 99.4919 739.3921 99.4919 735.1798 155.1252 735.1798 155.1955 727.959 148.6652 727.959 148.6652 718.6941 94.5348 718.6941 94.5348 727.959 83.4631 727.959 83.4631 712.9154 155.3429 712.9154 155.4035 706.73 78.7389 707.9391 78.7389 669.6727 178.5295 669.6727 178.5295 658.7584 142.2277 658.7584 142.2277 655.7496 178.5295 655.7496 178.5295 649.1305 105.5031 649.1305 105.5031 645.5201 178.5295 645.5201"/>
    <path d="M121.5998,1026.5924v-4.894h28.1797l-10.4717-14.6968h-17.708v-3.4109h15.2778l-12.8462-18.0294h-22.3584v-13.6439h12.6372l-4.3237-6.0681h-14.1304v-3.4546h11.6689l-2.9365-4.1211h-22.627v-9.7456h15.6831l-10.522-14.7678h71.3042v-86.0737H32.4767v187.0161h32.8574v-62.0944l19.4648,23.186h13.1689v2.4364h-11.1235l29.8901,35.6047h41.6924l-5.1606-7.2429h-31.6665Zm0-160.9023h17.3735v11.4705h-17.3735v-11.4705Zm6.7666,19.9785v7.7965h-26.6934v-7.7965h26.6934Zm-54.6885-12.6304h38.0078v8.2449h-38.0078v-8.2449Zm-6.2021,14.9353h25.2061v1.5933h-25.2061v-1.5933Zm-2.1416,10.4164h69.6812v16.2526H65.3341v-16.2526Z"/>
    <use width="120.2059" height="181.989" transform="translate(816.9638 1135.7991) rotate(-180)" xlink:href="#Black_J"/>
    <path d="M809.3782,925.4556v-153.5917h-130.7081v153.5917h130.7081Zm-83.8964-134.8058h37.9618v116.304h-37.9618v-116.304Zm-28.5016,22.6833h12.5464v74.5243h-12.5464v-74.5243Z"/>
    <use width="168.5153" height="179.4338" transform="translate(809.7394 744.991) rotate(-180)" xlink:href="#Black_K"/>
    <polygon points="663.6866 524.0771 663.6866 530.4684 809.7393 530.4684 809.7393 377.0383 663.6866 377.0383 663.6866 380.8622 687.4629 380.8622 687.4629 382.5636 663.6866 382.5636 663.6866 392.7131 698.6255 392.7131 698.6255 386.0027 701.4551 386.0027 701.4551 389.8884 725.4815 389.8884 725.4815 395.9057 663.6866 395.9057 663.6866 403.3202 763.4771 403.3202 763.4771 414.7001 687.2828 414.8316 687.2476 418.425 677.65 418.425 677.65 429.5893 713.8497 429.5893 713.8497 421.7807 725.4815 421.7807 725.4815 430.2051 742.7242 430.2051 742.7242 434.4174 687.0909 434.4174 687.0206 441.6382 693.5508 441.6382 693.5508 450.9031 747.6812 450.9031 747.6812 441.6382 758.753 441.6382 758.753 456.6818 686.8731 456.6818 686.8126 462.8672 763.4771 461.6581 763.4771 499.9245 663.6866 499.9245 663.6866 510.8388 699.9883 510.8388 699.9883 513.8476 663.6866 513.8476 663.6866 520.4667 736.7129 520.4667 736.7129 524.0771 663.6866 524.0771"/>
    <path d="M720.6163,143.0048v4.894h-28.1797l10.4717,14.6968h17.708v3.4109h-15.2778l12.8462,18.0294h22.3584v13.6439h-12.6372l4.3237,6.0681h14.1304v3.4546h-11.6689l2.9365,4.1211h22.627v9.7456h-15.6831l10.522,14.7678h-71.3042v86.0737h125.9502V134.8947h-32.8574v62.0944l-19.4648-23.186h-13.1689v-2.4364h11.1235l-29.8901-35.6047h-41.6924l5.1606,7.2429h31.6665Zm0,160.9023h-17.3735v-11.4705h17.3735v11.4705Zm-6.7666-19.9785v-7.7965h26.6934v7.7965h-26.6934Zm54.6885,12.6304h-38.0078v-8.2449h38.0078v8.2449Zm6.2021-14.9353h-25.2061v-1.5933h25.2061v1.5933Zm2.1416-10.4164h-69.6812v-16.2526h69.6812v16.2526Z"/>
    <polygon class="cls-1" points="565.6445 682.1422 430.0597 646.8508 430.0597 645.5114 427.487 646.1811 424.9142 645.5114 424.9142 646.8508 289.3293 682.1422 247.7486 972.378 424.9142 972.378 430.0597 972.378 607.2252 972.378 565.6445 682.1422"/>
    <polygon class="cls-4" points="624.1668 692.9674 486.3496 631.4102 416.4043 626.5022 346.4591 631.4102 208.6418 692.9674 330.5066 690.0488 277.5504 798.2977 377.5454 714.854 416.4043 808.1145 455.2631 714.854 555.2582 798.2977 502.302 690.0488 624.1668 692.9674"/>
    <polygon class="cls-3" points="427.5402 428.3216 427.5402 427.837 425.7166 428.0793 423.8928 427.837 423.8928 428.3216 314.9446 467.2167 354.7123 559.2971 354.7123 666.9355 423.8928 666.9355 427.5402 666.9355 496.7207 666.9355 496.7207 559.2971 536.9662 466.1106 427.5402 428.3216"/>
    <polygon class="cls-5" points="278.0507 491.9545 334.7658 418.8049 313.9835 346.2027 213.6438 384.7411 374.9081 220.1214 444.9957 360.0746 505.1071 259.8888 612.3273 408.3633 517.3696 333.4795 518.2407 423.7934 584.155 488.3102 425.7166 563.4744 278.0507 491.9545"/>
    <path d="M392.7704,602.1009h69.4331s-8.888,30.9933-36.4869,30.9933-23.8309-7.9739-32.9462-30.9933Z"/>
    <circle class="cls-6" cx="239.8801" cy="376.4153" r="29.1548"/>
    <circle class="cls-7" cx="602.7428" cy="399.2979" r="42.9193"/>
  </g>
</svg>