<?xml version="1.0" encoding="UTF-8"?>
<svg id="Layer_2" data-name="Layer 2" xmlns="http://www.w3.org/2000/svg" width="837.0066" height="1192.4994" xmlns:xlink="http://www.w3.org/1999/xlink" viewBox="0 0 837.0066 1192.4994">
  <defs>
    <style>
      .cls-1 {
        fill: url(#linear-gradient);
      }

      .cls-2 {
        fill: url(#linear-gradient-2);
        stroke: url(#linear-gradient-3);
        stroke-width: 8px;
      }

      .cls-2, .cls-3 {
        stroke-miterlimit: 10;
      }

      .cls-4, .cls-3 {
        fill: #fff;
      }

      .cls-5 {
        fill: #c22;
      }

      .cls-6 {
        fill: #cc2121;
      }

      .cls-7 {
        fill: url(#linear-gradient-4);
      }

      .cls-8 {
        fill: url(#linear-gradient-6);
      }

      .cls-9 {
        fill: url(#linear-gradient-5);
      }

      .cls-3 {
        stroke: #cc2221;
        stroke-width: 6px;
      }
    </style>
    <symbol id="Red_J" data-name="Red J" viewBox="0 0 120.2059 181.989">
      <path class="cls-6" d="M62.3528,0V10.3501h48.6274v9.292H62.3528v4.2556h34.6836v9.292H62.3528v4.4821h22.4249v7.0775h-22.4249V109.5324s.6428,33.4262-41.1399,19.2844L0,177.8389s120.2059,29.401,120.2059-68.3064V0H62.3528Z"/>
    </symbol>
    <symbol id="Red_K" data-name="Red K" viewBox="0 0 168.5153 179.4338">
      <g>
        <rect class="cls-6" y="0" width="57.9001" height="179.4338"/>
        <polygon class="cls-6" points="109.1143 155.5276 109.3497 139.2324 135.4326 179.4338 146.0528 179.4338 70.8691 69.8315 38.3108 116.0379 81.2394 179.4338 123.478 179.4338 109.1143 155.5276"/>
        <polygon class="cls-6" points="162.5865 0 100.0498 79.8368 100.3168 61.3514 147.1024 0 131.3756 0 110.5142 27.4506 110.7569 14.7477 121.9646 0 115.8002 0 50.9865 80.1402 50.9865 149.3361 77.1924 116.0379 168.5153 0 162.5865 0"/>
      </g>
    </symbol>
    <linearGradient id="linear-gradient" x1="243.8679" y1="808.6468" x2="602.8411" y2="808.6468" gradientUnits="userSpaceOnUse">
      <stop offset="0" stop-color="#ffbf94"/>
      <stop offset=".0355" stop-color="#f9ae87"/>
      <stop offset=".126" stop-color="#ed886c"/>
      <stop offset=".2238" stop-color="#e36855"/>
      <stop offset=".329" stop-color="#da4e41"/>
      <stop offset=".4444" stop-color="#d43a33"/>
      <stop offset=".575" stop-color="#cf2b28"/>
      <stop offset=".7337" stop-color="#cc2322"/>
      <stop offset="1" stop-color="#cc2121"/>
    </linearGradient>
    <linearGradient id="linear-gradient-2" x1="204.8159" y1="717.1388" x2="619.759" y2="717.1388" xlink:href="#linear-gradient"/>
    <linearGradient id="linear-gradient-3" x1="184.9866" y1="720.3339" x2="639.5883" y2="720.3339" gradientUnits="userSpaceOnUse">
      <stop offset="0" stop-color="#fceecb"/>
      <stop offset="1" stop-color="#ffda4a"/>
    </linearGradient>
    <linearGradient id="linear-gradient-4" x1="209.8109" y1="392.0842" x2="607.9361" y2="392.0842" gradientUnits="userSpaceOnUse">
      <stop offset="0" stop-color="#ffbf94"/>
      <stop offset=".1031" stop-color="#f39a79"/>
      <stop offset=".2283" stop-color="#e7755e"/>
      <stop offset=".3595" stop-color="#dd5648"/>
      <stop offset=".4966" stop-color="#d53e36"/>
      <stop offset=".6418" stop-color="#d02e2a"/>
      <stop offset=".8009" stop-color="#cd2423"/>
      <stop offset="1" stop-color="#cc2121"/>
    </linearGradient>
    <linearGradient id="linear-gradient-5" x1="200.9919" y1="377.0383" x2="259.2198" y2="377.0383" xlink:href="#linear-gradient-3"/>
    <linearGradient id="linear-gradient-6" x1="555.5057" y1="399.5737" x2="641.2241" y2="399.5737" xlink:href="#linear-gradient-3"/>
  </defs>
  <g id="Layer_10" data-name="Layer 10">
    <rect class="cls-4" width="837.0066" height="1192.4994" rx="71.1963" ry="71.1963"/>
    <polygon class="cls-1" points="561.3186 682.0219 425.9237 646.78 425.9237 645.4425 423.3546 646.1112 420.7854 645.4425 420.7854 646.78 285.3904 682.0219 243.8679 971.8512 420.7854 971.8512 425.9237 971.8512 602.8411 971.8512 561.3186 682.0219"/>
    <polygon class="cls-2" points="619.759 692.8319 482.1348 631.3609 412.2874 626.4599 342.4401 631.3609 204.8159 692.8319 326.51 689.9175 273.6279 798.0147 373.4829 714.6879 412.2874 807.8178 451.0918 714.6879 550.9468 798.0147 498.0649 689.9175 619.759 692.8319"/>
    <polygon class="cls-3" points="423.4077 428.5568 423.4077 428.0729 421.5866 428.3148 419.7654 428.0729 419.7654 428.5568 310.9698 467.3974 350.6818 559.3488 350.6818 666.8365 419.7654 666.8365 423.4077 666.8365 492.4914 666.8365 492.4914 559.3488 532.6805 466.2929 423.4077 428.5568"/>
    <polygon class="cls-7" points="274.1276 492.1006 330.7632 419.0533 310.01 346.5528 209.8109 385.0373 370.8494 220.6481 440.8387 360.4053 500.866 260.3598 607.9361 408.6264 513.1113 333.8475 513.9812 424.0349 579.8032 488.4613 421.5866 563.5203 274.1276 492.1006"/>
    <path class="cls-5" d="M388.6866,602.0927h69.3359s-8.8756,30.9499-36.4358,30.9499-23.7976-7.9628-32.9001-30.9499Z"/>
    <circle class="cls-9" cx="230.1059" cy="377.0383" r="29.114"/>
    <circle class="cls-8" cx="598.3649" cy="399.5737" r="42.8592"/>
    <use width="120.2059" height="181.989" transform="translate(25.2522 33.7981)" xlink:href="#Red_J"/>
    <path class="cls-6" d="M32.8379,244.1416v153.5917H163.546V244.1416H32.8379Zm83.8964,134.8058h-37.9618v-116.304h37.9618v116.304Zm28.5016-22.6833h-12.5464v-74.5243h12.5464v74.5243Z"/>
    <use width="168.5153" height="179.4338" transform="translate(32.4767 424.6062)" xlink:href="#Red_K"/>
    <polygon class="cls-6" points="178.5295 645.5201 178.5295 639.1288 32.4767 639.1288 32.4767 792.559 178.5295 792.559 178.5295 788.735 154.7531 788.735 154.7531 787.0336 178.5295 787.0336 178.5295 776.8842 143.5905 776.8842 143.5905 783.5945 140.7609 783.5945 140.7609 779.7089 116.7345 779.7089 116.7345 773.6915 178.5295 773.6915 178.5295 766.277 78.7389 766.277 78.7389 754.8971 154.9333 754.7656 154.9684 751.1722 164.5661 751.1722 164.5661 740.0079 128.3664 740.0079 128.3664 747.8165 116.7345 747.8165 116.7345 739.3921 99.4919 739.3921 99.4919 735.1798 155.1252 735.1798 155.1955 727.959 148.6652 727.959 148.6652 718.6941 94.5348 718.6941 94.5348 727.959 83.4631 727.959 83.4631 712.9154 155.3429 712.9154 155.4035 706.73 78.7389 707.9391 78.7389 669.6727 178.5295 669.6727 178.5295 658.7584 142.2277 658.7584 142.2277 655.7496 178.5295 655.7496 178.5295 649.1305 105.5031 649.1305 105.5031 645.5201 178.5295 645.5201"/>
    <path class="cls-6" d="M121.5998,1026.5924v-4.894h28.1797l-10.4717-14.6968h-17.708v-3.4109h15.2778l-12.8462-18.0294h-22.3584v-13.6439h12.6372l-4.3237-6.0681h-14.1304v-3.4546h11.6689l-2.9365-4.1211h-22.627v-9.7456h15.6831l-10.522-14.7678h71.3042v-86.0737H32.4767v187.0161h32.8574v-62.0944l19.4648,23.186h13.1689v2.4364h-11.1235l29.8901,35.6047h41.6924l-5.1606-7.2429h-31.6665Zm0-160.9023h17.3735v11.4705h-17.3735v-11.4705Zm6.7666,19.9785v7.7965h-26.6934v-7.7965h26.6934Zm-54.6885-12.6304h38.0078v8.2449h-38.0078v-8.2449Zm-6.2021,14.9353h25.2061v1.5933h-25.2061v-1.5933Zm-2.1416,10.4164h69.6812v16.2526H65.3341v-16.2526Z"/>
    <use width="120.2059" height="181.989" transform="translate(816.9638 1135.7991) rotate(-180)" xlink:href="#Red_J"/>
    <path class="cls-6" d="M809.3782,925.4556v-153.5917h-130.7081v153.5917h130.7081Zm-83.8964-134.8058h37.9618v116.304h-37.9618v-116.304Zm-28.5016,22.6833h12.5464v74.5243h-12.5464v-74.5243Z"/>
    <use width="168.5153" height="179.4338" transform="translate(809.7394 744.991) rotate(-180)" xlink:href="#Red_K"/>
    <polygon class="cls-6" points="663.6866 524.0771 663.6866 530.4684 809.7393 530.4684 809.7393 377.0383 663.6866 377.0383 663.6866 380.8622 687.4629 380.8622 687.4629 382.5636 663.6866 382.5636 663.6866 392.7131 698.6255 392.7131 698.6255 386.0027 701.4551 386.0027 701.4551 389.8884 725.4815 389.8884 725.4815 395.9057 663.6866 395.9057 663.6866 403.3202 763.4771 403.3202 763.4771 414.7001 687.2828 414.8316 687.2476 418.425 677.65 418.425 677.65 429.5893 713.8497 429.5893 713.8497 421.7807 725.4815 421.7807 725.4815 430.2051 742.7242 430.2051 742.7242 434.4174 687.0909 434.4174 687.0206 441.6382 693.5508 441.6382 693.5508 450.9031 747.6812 450.9031 747.6812 441.6382 758.753 441.6382 758.753 456.6818 686.8731 456.6818 686.8126 462.8672 763.4771 461.6581 763.4771 499.9245 663.6866 499.9245 663.6866 510.8388 699.9883 510.8388 699.9883 513.8476 663.6866 513.8476 663.6866 520.4667 736.7129 520.4667 736.7129 524.0771 663.6866 524.0771"/>
    <path class="cls-6" d="M720.6163,143.0048v4.894h-28.1797l10.4717,14.6968h17.708v3.4109h-15.2778l12.8462,18.0294h22.3584v13.6439h-12.6372l4.3237,6.0681h14.1304v3.4546h-11.6689l2.9365,4.1211h22.627v9.7456h-15.6831l10.522,14.7678h-71.3042v86.0737h125.9502V134.8947h-32.8574v62.0944l-19.4648-23.186h-13.1689v-2.4364h11.1235l-29.8901-35.6047h-41.6924l5.1606,7.2429h31.6665Zm0,160.9023h-17.3735v-11.4705h17.3735v11.4705Zm-6.7666-19.9785v-7.7965h26.6934v7.7965h-26.6934Zm54.6885,12.6304h-38.0078v-8.2449h38.0078v8.2449Zm6.2021-14.9353h-25.2061v-1.5933h25.2061v1.5933Zm2.1416-10.4164h-69.6812v-16.2526h69.6812v16.2526Z"/>
  </g>
</svg>