<?xml version="1.0" encoding="UTF-8"?>
<svg id="Layer_2" data-name="Layer 2" xmlns="http://www.w3.org/2000/svg" width="4468.8769" height="1967.4606" xmlns:xlink="http://www.w3.org/1999/xlink" viewBox="0 0 4468.8769 1967.4606">
  <defs>
    <style>
      .cls-1 {
        fill: none;
      }

      .cls-2 {
        fill: #6b513b;
      }

      .cls-3 {
        fill: #826248;
      }

      .cls-4 {
        fill: #6b4524;
      }

      .cls-5 {
        fill: #43a143;
      }

      .cls-6 {
        fill: #70553d;
      }

      .cls-7 {
        fill: #594431;
      }

      .cls-8 {
        fill: #785b42;
      }

      .cls-9 {
        fill: url(#New_Pattern_7);
      }
    </style>
    <pattern id="New_Pattern_7" data-name="New Pattern 7" x="0" y="0" width="729.9133" height="600.431" patternTransform="translate(-2124.8089 -5225.6928)" patternUnits="userSpaceOnUse" viewBox="0 0 729.9133 600.431">
      <g>
        <rect class="cls-1" y="0" width="729.9133" height="600.431"/>
        <g>
          <rect class="cls-2" x="-.0002" y="584.7888" width="182.4783" height="631.7155"/>
          <rect class="cls-4" x="182.4781" y="268.9311" width="182.4783" height="631.7155"/>
          <rect class="cls-3" x="364.9564" y="584.7888" width="182.4783" height="631.7155"/>
          <rect class="cls-6" x="547.4348" y="268.9311" width="182.4783" height="631.7155"/>
        </g>
        <g>
          <rect class="cls-2" x="-.0002" y="-15.6422" width="182.4783" height="631.7155"/>
          <rect class="cls-7" x="182.4781" y="300.2156" width="182.4783" height="631.7155"/>
          <rect class="cls-4" x="182.4781" y="-331.4999" width="182.4783" height="631.7155"/>
          <rect class="cls-3" x="364.9564" y="-15.6422" width="182.4783" height="631.7155"/>
          <rect class="cls-8" x="547.4348" y="300.2156" width="182.4783" height="631.7155"/>
          <rect class="cls-6" x="547.4348" y="-331.4999" width="182.4783" height="631.7155"/>
        </g>
        <g>
          <rect class="cls-2" x="-.0002" y="-616.0732" width="182.4783" height="631.7155"/>
          <rect class="cls-7" x="182.4781" y="-300.2154" width="182.4783" height="631.7155"/>
          <rect class="cls-3" x="364.9564" y="-616.0732" width="182.4783" height="631.7155"/>
          <rect class="cls-8" x="547.4348" y="-300.2154" width="182.4783" height="631.7155"/>
        </g>
      </g>
    </pattern>
  </defs>
  <g id="Layer_11" data-name="Layer 11">
    <rect width="4468.8769" height="1967.4606" rx="264.7366" ry="264.7366"/>
    <g>
      <rect class="cls-5" x="43.5266" y="42.46" width="4381.8237" height="1882.5406" rx="264.7366" ry="264.7366"/>
      <path class="cls-9" d="M4160.6138,87.46c29.6841,0,58.4561,5.8032,85.5176,17.249,26.1606,11.0654,49.6646,26.9155,69.8589,47.1104,20.1948,20.1943,36.0449,43.6982,47.1104,69.8594,11.4458,27.061,17.249,55.834,17.249,85.5176V1660.2647c0,29.6836-5.8032,58.4561-17.249,85.5171-11.0654,26.1606-26.9155,49.6646-47.1104,69.8594-20.1943,20.1948-43.6982,36.0449-69.8589,47.1099-27.0615,11.4463-55.8335,17.2495-85.5176,17.2495H308.2632c-29.6841,0-58.4568-5.8032-85.5173-17.2495-26.1614-11.0649-49.6653-26.915-69.8601-47.1099-20.1946-20.1948-36.0447-43.6987-47.1099-69.8594-11.446-27.061-17.2495-55.8335-17.2495-85.5171V307.1964c0-29.6836,5.8035-58.4565,17.2495-85.5171,11.0652-26.1606,26.9153-49.6655,47.1099-69.8599,20.1948-20.1948,43.6995-36.0449,69.8601-47.1104,27.0605-11.4458,55.8333-17.249,85.5173-17.249h3852.3506m0-45H308.2632c-146.21,0-264.7368,118.5264-264.7368,264.7363V1660.2647c0,146.209,118.5269,264.7358,264.7368,264.7358h3852.3506c146.21,0,264.7358-118.5269,264.7358-264.7358V307.1964c0-146.21-118.5259-264.7363-264.7358-264.7363h0Z"/>
    </g>
  </g>
</svg>