<?xml version="1.0" encoding="UTF-8"?>
<svg id="Layer_2" data-name="Layer 2" xmlns="http://www.w3.org/2000/svg" width="4381.8232" height="1448.7297" xmlns:xlink="http://www.w3.org/1999/xlink" viewBox="0 0 4381.8232 1448.7297">
  <defs>
    <style>
      .cls-1 {
        fill: none;
      }

      .cls-2 {
        fill: #29542f;
      }

      .cls-3 {
        fill: #29452d;
      }

      .cls-4 {
        fill: #477a4f;
      }

      .cls-5 {
        fill: #2e6b36;
      }

      .cls-6 {
        fill: url(#New_Pattern_4);
      }
    </style>
    <pattern id="New_Pattern_4" data-name="New Pattern 4" x="0" y="0" width="834.7296" height="834.7296" patternTransform="translate(2276.3188 -3886.7487)" patternUnits="userSpaceOnUse" viewBox="0 0 834.7296 834.7296">
      <g>
        <rect class="cls-1" width="834.7296" height="834.7296"/>
        <polygon class="cls-2" points="834.7296 834.7296 417.3648 834.7296 0 834.7296 0 417.3648 0 0 834.7296 0 834.7296 834.7296"/>
        <rect class="cls-3" y="417.3648" width="834.7296" height="417.3648"/>
        <polygon class="cls-5" points="417.3648 834.7296 0 417.3648 417.3648 417.3648 834.7296 834.7296 417.3648 834.7296"/>
        <polygon class="cls-4" points="417.3648 417.3648 0 0 417.3648 0 834.7296 417.3648 417.3648 417.3648"/>
      </g>
    </pattern>
  </defs>
  <g id="Layer_11" data-name="Layer 11">
    <g>
      <path class="cls-6" d="M264.7363,1448.2288c-70.5801,0-136.9355-27.4854-186.8438-77.3936C27.9849,1320.928,.4995,1254.5725,.4995,1183.9924V264.7366C.4995,194.1565,27.9849,127.801,77.8926,77.8938,127.8008,27.9856,194.1562,.5002,264.7363,.5002h3852.3506c70.5801,0,136.9355,27.4854,186.8428,77.3936,49.9082,49.9072,77.3936,116.2627,77.3936,186.8428v919.2559c0,70.5801-27.4854,136.9355-77.3936,186.8428-49.9072,49.9082-116.2627,77.3936-186.8428,77.3936H264.7363Z"/>
      <path d="M4117.0872,1c35.6045,0,70.1433,6.9729,102.6578,20.7256,31.4049,13.2834,59.6105,32.2996,83.8317,56.5212,24.2217,24.2217,43.2378,52.4265,56.5211,83.832,13.7527,32.5142,20.7255,67.0532,20.7255,102.6577v919.2559c0,35.6045-6.9728,70.1436-20.7255,102.6577-13.2833,31.4053-32.2994,59.6108-56.5211,83.832-24.2212,24.2217-52.4268,43.2383-83.8317,56.522-32.5145,13.7524-67.0533,20.7256-102.6578,20.7256H264.7361c-35.6045,0-70.1433-6.9731-102.6577-20.7256-31.405-13.2837-59.6106-32.3003-83.8318-56.522-24.2217-24.2212-43.2378-52.4268-56.521-83.832-13.7529-32.5142-20.7256-67.0532-20.7256-102.6577V264.7366c0-35.6045,6.9727-70.1436,20.7256-102.6577,13.2832-31.4055,32.2993-59.6104,56.521-83.832,24.2212-24.2217,52.4268-43.2378,83.8318-56.5212C194.5928,7.9729,229.1316,1,264.7361,1h3852.3511m0-1H264.7361C118.5266,0,0,118.5266,0,264.7366v919.2559c0,146.21,118.5266,264.7373,264.7361,264.7373h3852.3511c146.2095,0,264.7361-118.5273,264.7361-264.7373V264.7366c0-146.21-118.5266-264.7366-264.7361-264.7366h0Z"/>
    </g>
  </g>
</svg>