<?xml version="1.0" encoding="UTF-8"?>
<svg id="Layer_2" data-name="Layer 2" xmlns="http://www.w3.org/2000/svg" width="837.0066" height="1192.4994" xmlns:xlink="http://www.w3.org/1999/xlink" viewBox="0 0 837.0066 1192.4994">
  <defs>
    <style>
      .cls-1 {
        fill: #fff;
      }

      .cls-2 {
        fill: #333;
      }
    </style>
    <symbol id="Black_10" data-name="Black 10" viewBox="0 0 198.9506 175.8402">
      <g>
        <path d="M18.6871,98.1017"/>
        <path d="M18.6871,98.1017"/>
        <path d="M87.0228,3.1332V172.707h111.9278V3.1332H87.0228Zm71.8421,148.8332h-32.5074V23.5603h32.5074V151.9664Zm24.4065-7.711h-10.7437V65.4528h10.7437v78.8026Z"/>
        <polygon points="61.648 175.8402 61.648 0 38.2877 0 0 24.1071 0 62.7764 35.7269 41.1855 39.7969 47.9201 0 71.9707 0 75.1575 23.1616 61.4496 23.1616 175.8402 61.648 175.8402"/>
      </g>
    </symbol>
    <symbol id="Club" viewBox="0 0 252.1667 232.5147">
      <g>
        <polygon points="178.7168 193.0545 252.1667 119.6046 126.0834 0 0 119.6046 73.4499 193.0545 101.8507 164.6538 70.0905 232.5147 126.0834 232.5147 182.0762 232.5147 150.3161 164.6538 178.7168 193.0545"/>
        <polygon class="cls-2" points="126.0834 0 73.4499 193.0545 101.8507 164.6538 70.0905 232.5147 126.0834 232.5147 126.0834 0"/>
        <polygon class="cls-2" points="126.0834 0 178.7168 193.0545 252.1667 119.6046 126.0834 0"/>
      </g>
    </symbol>
  </defs>
  <g id="Layer_5" data-name="Layer 5">
    <rect class="cls-1" width="837.0066" height="1192.4994" rx="71.1963" ry="71.1963"/>
    <use width="252.1667" height="232.5147" transform="translate(47.9491 280.7654) scale(.4513)" xlink:href="#Club"/>
    <use width="252.1667" height="232.5147" transform="translate(784.292 898.6275) rotate(-180) scale(.4513)" xlink:href="#Club"/>
    <use width="198.9506" height="175.8402" transform="translate(33.6369 46.7307)" xlink:href="#Black_10"/>
    <use width="198.9506" height="175.8402" transform="translate(812.8473 1099.3923) rotate(-180)" xlink:href="#Black_10"/>
    <use width="252.1667" height="232.5147" transform="translate(186.5216 266.2911) scale(.6466)" xlink:href="#Club"/>
    <use width="252.1667" height="232.5147" transform="translate(186.5216 487.6565) scale(.6466)" xlink:href="#Club"/>
    <use width="252.1667" height="232.5147" transform="translate(349.5658 1076.4595) rotate(-180) scale(.6466)" xlink:href="#Club"/>
    <use width="252.1667" height="232.5147" transform="translate(349.5658 859.3596) rotate(-180) scale(.6466)" xlink:href="#Club"/>
    <use width="252.1667" height="232.5147" transform="translate(475.0972 891.538) scale(.6466 -.6466)" xlink:href="#Club"/>
    <use width="252.1667" height="232.5147" transform="translate(475.0972 670.1726) scale(.6466 -.6466)" xlink:href="#Club"/>
    <use width="252.1667" height="232.5147" transform="translate(638.1414 81.3695) rotate(-180) scale(.6466 -.6466)" xlink:href="#Club"/>
    <use width="252.1667" height="232.5147" transform="translate(638.1414 298.4694) rotate(-180) scale(.6466 -.6466)" xlink:href="#Club"/>
    <use width="252.1667" height="232.5147" transform="translate(336.9812 395.2017) scale(.6466)" xlink:href="#Club"/>
    <use width="252.1667" height="232.5147" transform="translate(336.9812 771.5032) scale(.6466 -.6466)" xlink:href="#Club"/>
  </g>
</svg>