<?xml version="1.0" encoding="UTF-8"?>
<svg id="Layer_2" data-name="Layer 2" xmlns="http://www.w3.org/2000/svg" width="837.0066" height="1192.4994" xmlns:xlink="http://www.w3.org/1999/xlink" viewBox="0 0 837.0066 1192.4994">
  <defs>
    <style>
      .cls-1 {
        fill: #fff;
      }

      .cls-2 {
        fill: #a85c5c;
      }

      .cls-3 {
        fill: #cc2121;
      }
    </style>
    <symbol id="Heart" viewBox="0 0 256.5537 261.0955">
      <g>
        <polygon class="cls-3" points="190.097 0 128.2769 50.9069 66.4567 0 0 57.2711 128.2769 261.0955 256.5537 57.2711 190.097 0"/>
        <polyline class="cls-2" points="66.4567 0 128.2769 261.0955 128.2769 50.9069"/>
        <polygon class="cls-2" points="190.097 0 128.2769 261.0955 256.5537 57.2711 190.097 0"/>
      </g>
    </symbol>
    <symbol id="Red_9" data-name="Red 9" viewBox="0 0 154.0062 187.366">
      <path class="cls-3" d="M153.2101,57.2213h-45.5075c1.1941,2.2955,1.8476,4.7764,1.8476,7.3658,0,11.76-13.4491,21.2933-30.0391,21.2933s-30.0393-9.5333-30.0393-21.2933,13.4489-21.2933,30.0393-21.2933c6.9541,0,13.3512,1.6797,18.4423,4.4917h53.4685C146.0837,26.8442,129.5821,0,80.6023,0,15.4353,0,2.8994,34.8203,1.7559,43.5854c-1.1432,8.7651-9.5896,45.6143,24.3499,61.6321,52.1038,24.5905,80.5316,.9958,80.5316,.9958,0,0,7.8649,38.7419-26.8548,37.6087-20.8685-.6812-24.0285-15.8849-24.0285-15.8849L2.4133,142.4867c31.2907,55.5348,83.0705,52.1109,123.5392,29.4222,30.4107-17.0497,28.2554-88.5651,27.8742-106.4766-.0489-2.3018-.2201-5.095-.6166-8.211Z"/>
    </symbol>
  </defs>
  <g id="Layer_5" data-name="Layer 5">
    <rect class="cls-1" width="837.0066" height="1192.4994" rx="71.1963" ry="71.1963"/>
    <use width="154.0062" height="187.366" transform="translate(30.8496 44.7807)" xlink:href="#Red_9"/>
    <use width="154.0062" height="187.366" transform="translate(801.9308 1127.2702) rotate(-180)" xlink:href="#Red_9"/>
    <use width="256.5537" height="261.0955" transform="translate(46.9591 253.8665) scale(.4513)" xlink:href="#Heart"/>
    <use width="256.5537" height="261.0955" transform="translate(185.1034 167.0513) scale(.6466)" xlink:href="#Heart"/>
    <use width="256.5537" height="261.0955" transform="translate(185.1033 386.9948) scale(.6466)" xlink:href="#Heart"/>
    <use width="256.5537" height="261.0955" transform="translate(350.9841 995.6993) rotate(-180) scale(.6466)" xlink:href="#Heart"/>
    <use width="256.5537" height="261.0955" transform="translate(350.984 775.7558) rotate(-180) scale(.6466)" xlink:href="#Heart"/>
    <use width="256.5537" height="261.0955" transform="translate(335.563 501.928) scale(.6466)" xlink:href="#Heart"/>
    <use width="256.5537" height="261.0955" transform="translate(785.8212 918.1844) rotate(-180) scale(.4513)" xlink:href="#Heart"/>
    <use width="256.5537" height="261.0955" transform="translate(647.677 1004.9997) rotate(-180) scale(.6466)" xlink:href="#Heart"/>
    <use width="256.5537" height="261.0955" transform="translate(647.677 785.0561) rotate(-180) scale(.6466)" xlink:href="#Heart"/>
    <use width="256.5537" height="261.0955" transform="translate(481.7963 176.3516) scale(.6466)" xlink:href="#Heart"/>
    <use width="256.5537" height="261.0955" transform="translate(481.7963 396.2951) scale(.6466)" xlink:href="#Heart"/>
  </g>
</svg>