<?xml version="1.0" encoding="UTF-8"?>
<svg id="Layer_2" data-name="Layer 2" xmlns="http://www.w3.org/2000/svg" width="837.0066" height="1192.4994" xmlns:xlink="http://www.w3.org/1999/xlink" viewBox="0 0 837.0066 1192.4994">
  <defs>
    <style>
      .cls-1 {
        fill: #fff;
      }

      .cls-2 {
        fill: #a85c5c;
      }

      .cls-3 {
        fill: #cc2121;
      }
    </style>
    <symbol id="Diamond" viewBox="0 0 163.1355 265.8583">
      <g>
        <polyline class="cls-3" points="81.5678 265.8583 0 134.2547 81.5678 0"/>
        <polyline class="cls-3" points="81.5678 0 163.1355 134.2547 81.5678 265.8583"/>
        <polygon class="cls-2" points="81.5678 0 81.5678 134.2547 0 134.2547 81.5678 0"/>
        <polygon class="cls-2" points="81.5678 134.2547 81.5678 265.8583 163.1355 134.2547 81.5678 134.2547"/>
      </g>
    </symbol>
    <symbol id="Red_10" data-name="Red 10" viewBox="0 0 198.9506 175.8402">
      <g>
        <path class="cls-3" d="M18.6871,98.1017"/>
        <path class="cls-3" d="M18.6871,98.1017"/>
        <path class="cls-3" d="M87.0228,3.1332V172.707h111.9278V3.1332H87.0228Zm71.8421,148.8332h-32.5074V23.5603h32.5074V151.9664Zm24.4065-7.711h-10.7437V65.4528h10.7437v78.8026Z"/>
        <polygon class="cls-3" points="61.648 175.8402 61.648 0 38.2877 0 0 24.1071 0 62.7764 35.7269 41.1855 39.7969 47.9201 0 71.9707 0 75.1575 23.1616 61.4496 23.1616 175.8402 61.648 175.8402"/>
      </g>
    </symbol>
  </defs>
  <g id="Layer_5" data-name="Layer 5">
    <rect class="cls-1" width="837.0066" height="1192.4994" rx="71.1963" ry="71.1963"/>
    <use width="163.1355" height="265.8583" transform="translate(68.0398 273.2411) scale(.4513)" xlink:href="#Diamond"/>
    <use width="163.1355" height="265.8583" transform="translate(764.2013 906.1518) rotate(-180) scale(.4513)" xlink:href="#Diamond"/>
    <use width="198.9506" height="175.8402" transform="translate(33.6369 46.7307)" xlink:href="#Red_10"/>
    <use width="198.9506" height="175.8402" transform="translate(812.8473 1099.3923) rotate(-180)" xlink:href="#Red_10"/>
    <use width="163.1355" height="265.8583" transform="translate(215.3042 255.5115) scale(.6466)" xlink:href="#Diamond"/>
    <use width="163.1355" height="265.8583" transform="translate(215.3042 476.8769) scale(.6466)" xlink:href="#Diamond"/>
    <use width="163.1355" height="265.8583" transform="translate(215.3041 698.2424) scale(.6466)" xlink:href="#Diamond"/>
    <use width="163.1355" height="265.8583" transform="translate(215.3042 915.3423) scale(.6466)" xlink:href="#Diamond"/>
    <use width="163.1355" height="265.8583" transform="translate(503.8798 902.3175) scale(.6466 -.6466)" xlink:href="#Diamond"/>
    <use width="163.1355" height="265.8583" transform="translate(503.8798 680.9521) scale(.6466 -.6466)" xlink:href="#Diamond"/>
    <use width="163.1355" height="265.8583" transform="translate(503.8797 459.5867) scale(.6466 -.6466)" xlink:href="#Diamond"/>
    <use width="163.1355" height="265.8583" transform="translate(503.8798 242.4868) scale(.6466 -.6466)" xlink:href="#Diamond"/>
    <use width="163.1355" height="265.8583" transform="translate(365.7638 384.4221) scale(.6466)" xlink:href="#Diamond"/>
    <use width="163.1355" height="265.8583" transform="translate(365.7638 782.2828) scale(.6466 -.6466)" xlink:href="#Diamond"/>
  </g>
</svg>