<?xml version="1.0" encoding="UTF-8"?>
<svg id="Layer_2" data-name="Layer 2" xmlns="http://www.w3.org/2000/svg" width="837.0066" height="1192.4994" xmlns:xlink="http://www.w3.org/1999/xlink" viewBox="0 0 837.0066 1192.4994">
  <defs>
    <style>
      .cls-1 {
        fill: #fff;
      }

      .cls-2 {
        fill: #333;
      }
    </style>
    <symbol id="Black_e3" data-name="Black e3" viewBox="0 0 165.5344 186.3721">
      <path d="M144.1836,91.9484v-4.1966s20.0837-12.2983,20.0837-40.1716S125.8983-2.4753,85.4311,.2226c-21.805,1.4536-41.6851,6.1369-56.0967,15.9536h41.8329v5.4204H22.5167c-1.1596,1.0803-2.2627,2.2111-3.314,3.3877H59.3102v19.31H8.5451c-.8806,3.0086-1.5406,6.1971-1.9504,9.5849l52.1579,9.5922s5.0959-16.1869,27.278-15.8872c22.1821,.2998,21.2828,15.8872,21.2828,15.8872,0,0,3.597,11.3908-40.1676,11.6906v33.2731s40.5436-.8836,40.2393,16.1869c-.2631,14.7571-30.3472,17.0862-53.4286-1.4988L0,136.6873s10.4916,49.6848,82.1337,49.6848,83.3327-41.0668,83.3327-49.1602,2.3981-40.1676-21.2828-45.2635Z"/>
    </symbol>
    <symbol id="Spade" viewBox="0 0 285.5324 271.7601">
      <g>
        <polygon points="285.5324 183.2928 242.6122 97.1964 172.6183 128.7681 219.6657 49.9247 142.7661 0 74.4492 57.5811 112.9141 128.7681 42.9201 97.1964 0 183.2928 87.0237 212.3293 112.9141 167.8122 95.6276 271.7601 142.7661 271.7601 189.9048 271.7601 172.6183 167.8122 198.5087 212.3293 285.5324 183.2928"/>
        <polygon class="cls-2" points="142.7661 0 112.9141 128.7681 74.4492 57.5811 142.7661 0"/>
        <polygon class="cls-2" points="142.7661 0 142.7661 271.7601 189.9048 271.7601 172.6183 167.8122 198.5087 212.3293 246.7453 178.862 242.6122 97.1964 172.6183 128.7681 142.7661 0"/>
      </g>
    </symbol>
  </defs>
  <g id="Layer_5" data-name="Layer 5">
    <rect class="cls-1" x="0" width="837.0066" height="1192.4994" rx="71.1963" ry="71.1963"/>
    <use width="165.5344" height="186.3721" transform="translate(25.0855 45.2776)" xlink:href="#Black_e3"/>
    <use width="285.5324" height="271.7601" transform="translate(40.4199 251.4599) scale(.4513)" xlink:href="#Spade"/>
    <use width="285.5324" height="271.7601" transform="translate(326.1945 508.3933) scale(.6466)" xlink:href="#Spade"/>
    <use width="165.5344" height="186.3721" transform="translate(807.6949 1126.7733) rotate(-180)" xlink:href="#Black_e3"/>
    <use width="285.5324" height="271.7601" transform="translate(792.3605 920.591) rotate(-180) scale(.4513)" xlink:href="#Spade"/>
    <use width="285.5324" height="271.7601" transform="translate(510.8121 1008.4474) rotate(-180) scale(.6466)" xlink:href="#Spade"/>
    <use width="285.5324" height="271.7601" transform="translate(326.1945 172.9038) scale(.6466)" xlink:href="#Spade"/>
  </g>
</svg>