<?xml version="1.0" encoding="UTF-8"?>
<svg id="Layer_2" data-name="Layer 2" xmlns="http://www.w3.org/2000/svg" width="837.0066" height="1192.4994" xmlns:xlink="http://www.w3.org/1999/xlink" viewBox="0 0 837.0066 1192.4994">
  <defs>
    <style>
      .cls-1 {
        fill: #fff;
      }

      .cls-2 {
        fill: #a85c5c;
      }

      .cls-3 {
        fill: #cc2121;
      }
    </style>
    <symbol id="Diamond" viewBox="0 0 163.1355 265.8583">
      <g>
        <polyline class="cls-3" points="81.5678 265.8583 0 134.2547 81.5678 0"/>
        <polyline class="cls-3" points="81.5678 0 163.1355 134.2547 81.5678 265.8583"/>
        <polygon class="cls-2" points="81.5678 0 81.5678 134.2547 0 134.2547 81.5678 0"/>
        <polygon class="cls-2" points="81.5678 134.2547 81.5678 265.8583 163.1355 134.2547 81.5678 134.2547"/>
      </g>
    </symbol>
    <symbol id="Red_6" data-name="Red 6" viewBox="0 0 153.9497 187.3612">
      <path class="cls-3" d="M103.3641,128.6563c-3.602,8.8977-15.1587,15.411-28.8689,15.411-16.5902,0-30.0391-9.5333-30.0391-21.2933s13.4489-21.2933,30.0391-21.2933c13.7103,0,25.267,6.5133,28.8689,15.411h50.0376c-1.7613-12.6477-7.9715-26.4749-25.5013-34.7481-52.104-24.5905-80.5315-.9958-80.5315-.9958,0,0-7.8649-38.7419,26.8547-37.6087,20.8685,.6811,24.0285,15.8849,24.0285,15.8849l53.3408-14.5495c-2.0703-3.6742-4.2325-7.0831-6.473-10.2527h-62.1642v-6.0608h57.5453c-1.5678-1.9016-3.1688-3.696-4.8002-5.3874H56.6923V10.7155h63.6751C91.5333-7.1046,56.9174-.7302,28.0538,15.4523-2.3568,32.502-.2015,104.0174,.1794,121.9288c.3813,17.9114,8.0574,65.4323,73.2246,65.4323s77.703-34.8204,78.8462-43.5855c.3602-2.7614,1.4433-8.3128,1.6995-15.1194h-50.5855Z"/>
    </symbol>
  </defs>
  <g id="Layer_5" data-name="Layer 5">
    <rect class="cls-1" width="837.0066" height="1192.4994" rx="71.1963" ry="71.1963"/>
    <use width="153.9497" height="187.3612" transform="translate(30.8779 44.7831)" xlink:href="#Red_6"/>
    <use width="153.9497" height="187.3612" transform="translate(801.9025 1127.2678) rotate(-180)" xlink:href="#Red_6"/>
    <use width="163.1355" height="265.8583" transform="translate(68.0398 252.7917) scale(.4513)" xlink:href="#Diamond"/>
    <use width="163.1355" height="265.8583" transform="translate(215.3042 165.5115) scale(.6466)" xlink:href="#Diamond"/>
    <use width="163.1355" height="265.8583" transform="translate(320.7832 997.2391) rotate(-180) scale(.6466)" xlink:href="#Diamond"/>
    <use width="163.1355" height="265.8583" transform="translate(215.3041 500.3882) scale(.6466)" xlink:href="#Diamond"/>
    <use width="163.1355" height="265.8583" transform="translate(764.7406 919.2592) rotate(-180) scale(.4513)" xlink:href="#Diamond"/>
    <use width="163.1355" height="265.8583" transform="translate(617.4762 1006.5394) rotate(-180) scale(.6466)" xlink:href="#Diamond"/>
    <use width="163.1355" height="265.8583" transform="translate(511.9971 174.8118) scale(.6466)" xlink:href="#Diamond"/>
    <use width="163.1355" height="265.8583" transform="translate(511.9971 497.8499) scale(.6466)" xlink:href="#Diamond"/>
  </g>
</svg>