<?xml version="1.0" encoding="UTF-8"?>
<svg id="Layer_2" data-name="Layer 2" xmlns="http://www.w3.org/2000/svg" width="837.0066" height="1192.4994" xmlns:xlink="http://www.w3.org/1999/xlink" viewBox="0 0 837.0066 1192.4994">
  <defs>
    <style>
      .cls-1 {
        fill: #fff;
      }

      .cls-2 {
        fill: #a85c5c;
      }

      .cls-3 {
        fill: #cc2121;
      }
    </style>
    <symbol id="Heart" viewBox="0 0 256.5537 261.0955">
      <g>
        <polygon class="cls-3" points="190.097 0 128.2769 50.9069 66.4567 0 0 57.2711 128.2769 261.0955 256.5537 57.2711 190.097 0"/>
        <polyline class="cls-2" points="66.4567 0 128.2769 261.0955 128.2769 50.9069"/>
        <polygon class="cls-2" points="190.097 0 128.2769 261.0955 256.5537 57.2711 190.097 0"/>
      </g>
    </symbol>
    <symbol id="Red_7" data-name="Red 7" viewBox="0 0 142.5592 177.8389">
      <g>
        <polygon class="cls-3" points="9.4485 177.8389 69.888 177.8389 120.0591 88.9219 60.3372 88.9219 9.4485 177.8389"/>
        <polygon class="cls-3" points="142.5592 0 0 0 0 36.2279 111.5469 36.2279 111.5469 44.2535 0 44.2535 0 49.6041 82.8393 49.6041 65.718 79.52 125.364 79.52 142.5592 49.0453 142.5592 0"/>
        <polygon class="cls-3" points="142.5592 88.9219 142.5592 79.52 125.364 79.52 120.0591 88.9219 142.5592 88.9219"/>
        <polygon class="cls-3" points="30.3167 79.52 30.3167 88.9219 60.3372 88.9219 65.718 79.52 30.3167 79.52"/>
      </g>
    </symbol>
  </defs>
  <g id="Layer_5" data-name="Layer 5">
    <rect class="cls-1" width="837.0066" height="1192.4994" rx="71.1963" ry="71.1963"/>
    <use width="142.5592" height="177.8389" transform="translate(36.5731 49.5443)" xlink:href="#Red_7"/>
    <use width="142.5592" height="177.8389" transform="translate(796.2073 1122.5066) rotate(-180)" xlink:href="#Red_7"/>
    <use width="256.5537" height="261.0955" transform="translate(46.9591 253.8665) scale(.4513)" xlink:href="#Heart"/>
    <use width="256.5537" height="261.0955" transform="translate(185.1034 197.0513) scale(.6466)" xlink:href="#Heart"/>
    <use width="256.5537" height="261.0955" transform="translate(350.9841 965.6993) rotate(-180) scale(.6466)" xlink:href="#Heart"/>
    <use width="256.5537" height="261.0955" transform="translate(185.1033 501.928) scale(.6466)" xlink:href="#Heart"/>
    <use width="256.5537" height="261.0955" transform="translate(785.8212 918.1844) rotate(-180) scale(.4513)" xlink:href="#Heart"/>
    <use width="256.5537" height="261.0955" transform="translate(647.677 974.9997) rotate(-180) scale(.6466)" xlink:href="#Heart"/>
    <use width="256.5537" height="261.0955" transform="translate(481.7963 206.3516) scale(.6466)" xlink:href="#Heart"/>
    <use width="256.5537" height="261.0955" transform="translate(335.7963 360.0677) scale(.6466)" xlink:href="#Heart"/>
    <use width="256.5537" height="261.0955" transform="translate(481.7963 499.3896) scale(.6466)" xlink:href="#Heart"/>
  </g>
</svg>