<?xml version="1.0" encoding="UTF-8"?>
<svg id="Layer_2" data-name="Layer 2" xmlns="http://www.w3.org/2000/svg" width="837.0066" height="1192.4994" xmlns:xlink="http://www.w3.org/1999/xlink" viewBox="0 0 837.0066 1192.4994">
  <defs>
    <style>
      .cls-1 {
        fill: #fff;
      }

      .cls-2 {
        fill: #333;
      }
    </style>
    <symbol id="Black_9" data-name="Black 9" viewBox="0 0 154.0062 187.366">
      <path d="M153.2101,57.2213h-45.5075c1.1941,2.2955,1.8476,4.7764,1.8476,7.3658,0,11.76-13.4491,21.2933-30.0391,21.2933s-30.0393-9.5333-30.0393-21.2933,13.4489-21.2933,30.0393-21.2933c6.9541,0,13.3512,1.6797,18.4423,4.4917h53.4685C146.0837,26.8442,129.5821,0,80.6023,0,15.4353,0,2.8994,34.8203,1.7559,43.5854c-1.1432,8.7651-9.5896,45.6143,24.3499,61.6321,52.1038,24.5905,80.5316,.9958,80.5316,.9958,0,0,7.8649,38.7419-26.8548,37.6087-20.8685-.6812-24.0285-15.8849-24.0285-15.8849L2.4133,142.4867c31.2907,55.5348,83.0705,52.1109,123.5392,29.4222,30.4107-17.0497,28.2554-88.5651,27.8742-106.4766-.0489-2.3018-.2201-5.095-.6166-8.211Z"/>
    </symbol>
    <symbol id="Spade" viewBox="0 0 285.5324 271.7601">
      <g>
        <polygon points="285.5324 183.2928 242.6122 97.1964 172.6183 128.7681 219.6657 49.9247 142.7661 0 74.4492 57.5811 112.9141 128.7681 42.9201 97.1964 0 183.2928 87.0237 212.3293 112.9141 167.8122 95.6276 271.7601 142.7661 271.7601 189.9048 271.7601 172.6183 167.8122 198.5087 212.3293 285.5324 183.2928"/>
        <polygon class="cls-2" points="142.7661 0 112.9141 128.7681 74.4492 57.5811 142.7661 0"/>
        <polygon class="cls-2" points="142.7661 0 142.7661 271.7601 189.9048 271.7601 172.6183 167.8122 198.5087 212.3293 246.7453 178.862 242.6122 97.1964 172.6183 128.7681 142.7661 0"/>
      </g>
    </symbol>
  </defs>
  <g id="Layer_5" data-name="Layer 5">
    <rect class="cls-1" width="837.0066" height="1192.4994" rx="71.1963" ry="71.1963"/>
    <use width="154.0062" height="187.366" transform="translate(30.8496 44.7807)" xlink:href="#Black_9"/>
    <use width="285.5324" height="271.7601" transform="translate(40.4199 251.4599) scale(.4513)" xlink:href="#Spade"/>
    <use width="285.5324" height="271.7601" transform="translate(175.7349 163.6035) scale(.6466)" xlink:href="#Spade"/>
    <use width="285.5324" height="271.7601" transform="translate(175.7349 383.5471) scale(.6466)" xlink:href="#Spade"/>
    <use width="285.5324" height="271.7601" transform="translate(360.3525 999.1471) rotate(-180) scale(.6466)" xlink:href="#Spade"/>
    <use width="285.5324" height="271.7601" transform="translate(360.3524 779.2035) rotate(-180) scale(.6466)" xlink:href="#Spade"/>
    <use width="285.5324" height="271.7601" transform="translate(326.1945 498.4803) scale(.6466)" xlink:href="#Spade"/>
    <use width="154.0062" height="187.366" transform="translate(801.9308 1127.2702) rotate(-180)" xlink:href="#Black_9"/>
    <use width="285.5324" height="271.7601" transform="translate(792.3605 920.591) rotate(-180) scale(.4513)" xlink:href="#Spade"/>
    <use width="285.5324" height="271.7601" transform="translate(657.0454 1008.4474) rotate(-180) scale(.6466)" xlink:href="#Spade"/>
    <use width="285.5324" height="271.7601" transform="translate(657.0455 788.5038) rotate(-180) scale(.6466)" xlink:href="#Spade"/>
    <use width="285.5324" height="271.7601" transform="translate(472.4278 172.9038) scale(.6466)" xlink:href="#Spade"/>
    <use width="285.5324" height="271.7601" transform="translate(472.4279 392.8474) scale(.6466)" xlink:href="#Spade"/>
  </g>
</svg>