<?xml version="1.0" encoding="UTF-8"?>
<svg id="Layer_2" data-name="Layer 2" xmlns="http://www.w3.org/2000/svg" width="837.0066" height="1192.4994" xmlns:xlink="http://www.w3.org/1999/xlink" viewBox="0 0 837.0066 1192.4994">
  <defs>
    <style>
      .cls-1 {
        fill: #fff;
      }

      .cls-2 {
        fill: #333;
      }
    </style>
    <symbol id="Black_A" data-name="Black A" viewBox="0 0 210.6971 179.8614">
      <path d="M166.4612,0H45.6703l-3.6612,14.4195H120.854v10.4471H39.3561l-.3887,1.5313h47.6984v10.4471H36.3147l-1.0082,3.971h15.6482v10.4472h-18.3009l-2.2242,8.7597h31.3074v10.4472H27.7766l-4.4399,17.4858h8.9951v10.4472h-11.6478l-1.0082,3.971h29.3933v10.4472H17.0231l-3.836,15.1066H88.518v10.4471H10.5344l-1.0085,3.971H61.737v10.4472H6.8732L0,179.8614H60.8935l7.8937-23.6808h70.612l7.8063,23.6808h63.4915L166.4612,0ZM77.4687,119.508l9.0728-44.1068h36.0137l8.3429,44.1068h-53.4294Z"/>
    </symbol>
    <symbol id="Spade" viewBox="0 0 285.5324 271.7601">
      <g>
        <polygon points="285.5324 183.2928 242.6122 97.1964 172.6183 128.7681 219.6657 49.9247 142.7661 0 74.4492 57.5811 112.9141 128.7681 42.9201 97.1964 0 183.2928 87.0237 212.3293 112.9141 167.8122 95.6276 271.7601 142.7661 271.7601 189.9048 271.7601 172.6183 167.8122 198.5087 212.3293 285.5324 183.2928"/>
        <polygon class="cls-2" points="142.7661 0 112.9141 128.7681 74.4492 57.5811 142.7661 0"/>
        <polygon class="cls-2" points="142.7661 0 142.7661 271.7601 189.9048 271.7601 172.6183 167.8122 198.5087 212.3293 246.7453 178.862 242.6122 97.1964 172.6183 128.7681 142.7661 0"/>
      </g>
    </symbol>
  </defs>
  <g id="Layer_5" data-name="Layer 5">
    <rect class="cls-1" x="0" width="837.0066" height="1192.4994" rx="71.1963" ry="71.1963"/>
    <use width="210.6971" height="179.8614" transform="translate(31.7206 48.533)" xlink:href="#Black_A"/>
    <use width="285.5324" height="271.7601" transform="translate(40.4199 251.4599) scale(.4513)" xlink:href="#Spade"/>
    <use width="285.5324" height="271.7601" transform="translate(218.1945 405.6025) scale(1.4031)" xlink:href="#Spade"/>
    <use width="210.6971" height="179.8614" transform="translate(819.3634 1118.1555) rotate(-180)" xlink:href="#Black_A"/>
    <use width="285.5324" height="271.7601" transform="translate(792.3605 920.591) rotate(-180) scale(.4513)" xlink:href="#Spade"/>
  </g>
</svg>