<?xml version="1.0" encoding="UTF-8"?>
<svg id="Layer_2" data-name="Layer 2" xmlns="http://www.w3.org/2000/svg" width="837.0066" height="1192.4994" xmlns:xlink="http://www.w3.org/1999/xlink" viewBox="0 0 837.0066 1192.4994">
  <defs>
    <style>
      .cls-1 {
        fill: #fff;
      }

      .cls-2 {
        fill: #333;
      }
    </style>
    <symbol id="Black_A" data-name="Black A" viewBox="0 0 210.6971 179.8614">
      <path d="M166.4612,0H45.6703l-3.6612,14.4195H120.854v10.4471H39.3561l-.3887,1.5313h47.6984v10.4471H36.3147l-1.0082,3.971h15.6482v10.4472h-18.3009l-2.2242,8.7597h31.3074v10.4472H27.7766l-4.4399,17.4858h8.9951v10.4472h-11.6478l-1.0082,3.971h29.3933v10.4472H17.0231l-3.836,15.1066H88.518v10.4471H10.5344l-1.0085,3.971H61.737v10.4472H6.8732L0,179.8614H60.8935l7.8937-23.6808h70.612l7.8063,23.6808h63.4915L166.4612,0ZM77.4687,119.508l9.0728-44.1068h36.0137l8.3429,44.1068h-53.4294Z"/>
    </symbol>
    <symbol id="Club" viewBox="0 0 252.1667 232.5147">
      <g>
        <polygon points="178.7168 193.0545 252.1667 119.6046 126.0834 0 0 119.6046 73.4499 193.0545 101.8507 164.6538 70.0905 232.5147 126.0834 232.5147 182.0762 232.5147 150.3161 164.6538 178.7168 193.0545"/>
        <polygon class="cls-2" points="126.0834 0 73.4499 193.0545 101.8507 164.6538 70.0905 232.5147 126.0834 232.5147 126.0834 0"/>
        <polygon class="cls-2" points="126.0834 0 178.7168 193.0545 252.1667 119.6046 126.0834 0"/>
      </g>
    </symbol>
  </defs>
  <g id="Layer_5" data-name="Layer 5">
    <rect class="cls-1" x="0" width="837.0066" height="1192.4994" rx="71.1963" ry="71.1963"/>
    <use width="210.6971" height="179.8614" transform="translate(27.956 48.533)" xlink:href="#Black_A"/>
    <use width="210.6971" height="179.8614" transform="translate(817.2268 1117.0982) rotate(-180)" xlink:href="#Black_A"/>
    <use width="252.1667" height="232.5147" transform="translate(47.9491 260.316) scale(.4513)" xlink:href="#Club"/>
    <use width="252.1667" height="232.5147" transform="translate(218.4812 411.8159) scale(1.5864)" xlink:href="#Club"/>
    <use width="252.1667" height="232.5147" transform="translate(784.8313 911.7349) rotate(-180) scale(.4513)" xlink:href="#Club"/>
  </g>
</svg>