<?xml version="1.0" encoding="UTF-8"?>
<svg id="Layer_2" data-name="Layer 2" xmlns="http://www.w3.org/2000/svg" width="837.0066" height="1192.4994" xmlns:xlink="http://www.w3.org/1999/xlink" viewBox="0 0 837.0066 1192.4994">
  <defs>
    <style>
      .cls-1 {
        fill: url(#linear-gradient);
      }

      .cls-2 {
        stroke: url(#linear-gradient-16);
      }

      .cls-2, .cls-3, .cls-4, .cls-5, .cls-6, .cls-7, .cls-8, .cls-9, .cls-10, .cls-11, .cls-12, .cls-13, .cls-14, .cls-15, .cls-16, .cls-17, .cls-18 {
        stroke-miterlimit: 10;
      }

      .cls-2, .cls-3, .cls-4, .cls-5, .cls-6, .cls-7, .cls-9, .cls-10, .cls-11, .cls-15, .cls-16, .cls-17, .cls-18 {
        stroke-width: 5px;
      }

      .cls-2, .cls-3, .cls-4, .cls-5, .cls-6, .cls-7, .cls-10, .cls-11, .cls-15, .cls-16, .cls-17, .cls-18 {
        stroke-linecap: square;
      }

      .cls-3 {
        stroke: url(#linear-gradient-15);
      }

      .cls-4 {
        stroke: url(#linear-gradient-14);
      }

      .cls-5 {
        stroke: url(#linear-gradient-30);
      }

      .cls-6 {
        stroke: url(#linear-gradient-31);
      }

      .cls-7 {
        stroke: url(#linear-gradient-32);
      }

      .cls-19 {
        fill: #fff;
      }

      .cls-20 {
        fill: #333;
      }

      .cls-8 {
        fill: url(#linear-gradient-3);
      }

      .cls-8, .cls-9, .cls-14 {
        stroke: #fff;
      }

      .cls-8, .cls-14 {
        stroke-width: 25px;
      }

      .cls-10 {
        fill: url(#linear-gradient-8);
        stroke: url(#linear-gradient-9);
      }

      .cls-11 {
        fill: url(#linear-gradient-6);
        stroke: url(#linear-gradient-7);
      }

      .cls-12 {
        stroke: url(#linear-gradient-20);
      }

      .cls-12, .cls-13 {
        fill: none;
        stroke-width: 6px;
      }

      .cls-21 {
        fill: url(#linear-gradient-2);
      }

      .cls-22 {
        fill: url(#linear-gradient-5);
      }

      .cls-13 {
        stroke: url(#linear-gradient-4);
      }

      .cls-14 {
        fill: url(#linear-gradient-19);
      }

      .cls-15 {
        fill: url(#linear-gradient-10);
        stroke: url(#linear-gradient-11);
      }

      .cls-16 {
        fill: url(#linear-gradient-24);
        stroke: url(#linear-gradient-25);
      }

      .cls-17 {
        fill: url(#linear-gradient-22);
        stroke: url(#linear-gradient-23);
      }

      .cls-18 {
        fill: url(#linear-gradient-26);
        stroke: url(#linear-gradient-27);
      }

      .cls-23 {
        fill: url(#linear-gradient-18);
      }

      .cls-24 {
        fill: url(#linear-gradient-21);
      }

      .cls-25 {
        fill: url(#linear-gradient-17);
      }

      .cls-26 {
        fill: url(#linear-gradient-13);
      }

      .cls-27 {
        fill: url(#linear-gradient-12);
      }

      .cls-28 {
        fill: url(#linear-gradient-28);
      }

      .cls-29 {
        fill: url(#linear-gradient-29);
      }
    </style>
    <symbol id="Black_J" data-name="Black J" viewBox="0 0 120.2059 181.989">
      <path d="M62.3528,0V10.3501h48.6274v9.292H62.3528v4.2556h34.6836v9.292H62.3528v4.4821h22.4249v7.0775h-22.4249V109.5324s.6428,33.4262-41.1399,19.2844L0,177.8389s120.2059,29.401,120.2059-68.3064V0H62.3528Z"/>
    </symbol>
    <symbol id="Club" viewBox="0 0 252.1667 232.5147">
      <g>
        <polygon points="178.7168 193.0545 252.1667 119.6046 126.0834 0 0 119.6046 73.4499 193.0545 101.8507 164.6538 70.0905 232.5147 126.0834 232.5147 182.0762 232.5147 150.3161 164.6538 178.7168 193.0545"/>
        <polygon class="cls-20" points="126.0834 0 73.4499 193.0545 101.8507 164.6538 70.0905 232.5147 126.0834 232.5147 126.0834 0"/>
        <polygon class="cls-20" points="126.0834 0 178.7168 193.0545 252.1667 119.6046 126.0834 0"/>
      </g>
    </symbol>
    <linearGradient id="linear-gradient" x1="364.3423" y1="302.6362" x2="379.2287" y2="302.6362" gradientUnits="userSpaceOnUse">
      <stop offset="0" stop-color="#3b372e"/>
      <stop offset=".9994" stop-color="#000"/>
    </linearGradient>
    <linearGradient id="linear-gradient-2" x1="13276.1013" y1="302.6362" x2="13290.9877" y2="302.6362" gradientTransform="translate(13670.2164) rotate(-180) scale(1 -1)" xlink:href="#linear-gradient"/>
    <linearGradient id="linear-gradient-3" x1="17.0506" y1="328.6696" x2="337.432" y2="328.6696" gradientUnits="userSpaceOnUse">
      <stop offset="0" stop-color="#aba189"/>
      <stop offset=".0128" stop-color="#a19881"/>
      <stop offset=".0713" stop-color="#7b7463"/>
      <stop offset=".1364" stop-color="#5a5448"/>
      <stop offset=".2076" stop-color="#3d3a31"/>
      <stop offset=".2871" stop-color="#27241f"/>
      <stop offset=".3786" stop-color="#151411"/>
      <stop offset=".4892" stop-color="#090807"/>
      <stop offset=".6389" stop-color="#020101"/>
      <stop offset=".9994" stop-color="#000"/>
    </linearGradient>
    <linearGradient id="linear-gradient-4" x1="77.8546" y1="156.2206" x2="276.6281" y2="156.2206" xlink:href="#linear-gradient-3"/>
    <linearGradient id="linear-gradient-5" x1="34.066" y1="42.8193" x2="320.4167" y2="42.8193" xlink:href="#linear-gradient-3"/>
    <linearGradient id="linear-gradient-6" x1="74.2405" y1="42.8193" x2="135.4011" y2="42.8193" xlink:href="#linear-gradient-3"/>
    <linearGradient id="linear-gradient-7" x1="765.247" y1="42.8507" x2="826.8076" y2="42.8507" gradientTransform="translate(-785.7938) scale(1.1187 1)" gradientUnits="userSpaceOnUse">
      <stop offset="0" stop-color="#fceecb"/>
      <stop offset="1" stop-color="#ffda4a"/>
    </linearGradient>
    <linearGradient id="linear-gradient-8" x1="146.3139" y1="34.2655" x2="208.1689" y2="34.2655" xlink:href="#linear-gradient-3"/>
    <linearGradient id="linear-gradient-9" x1="830.1572" y1="34.4771" x2="891.5311" y2="34.4771" gradientTransform="translate(-785.7938) scale(1.1187 1)" gradientUnits="userSpaceOnUse">
      <stop offset="0" stop-color="#f7dd9d"/>
      <stop offset="1" stop-color="#ffda4a"/>
    </linearGradient>
    <linearGradient id="linear-gradient-10" x1="13051.4718" y1="43.8193" x2="13112.6324" y2="43.8193" gradientTransform="translate(13330.7454) rotate(-180) scale(1 -1)" xlink:href="#linear-gradient-3"/>
    <linearGradient id="linear-gradient-11" x1="12375.17" y1="43.8507" x2="12436.7306" y2="43.8507" gradientTransform="translate(14127.4483) rotate(-180) scale(1.1187 -1)" gradientUnits="userSpaceOnUse">
      <stop offset="0" stop-color="#ffda4f"/>
      <stop offset="1" stop-color="#ffda4a"/>
    </linearGradient>
    <linearGradient id="linear-gradient-12" x1="43.6887" y1="149.621" x2="135.4011" y2="149.621" xlink:href="#linear-gradient-3"/>
    <linearGradient id="linear-gradient-13" x1="13002.6751" y1="149.621" x2="13094.3876" y2="149.621" gradientTransform="translate(13313.6193) rotate(-180) scale(1 -1)" gradientUnits="userSpaceOnUse">
      <stop offset="0" stop-color="#000"/>
      <stop offset=".1458" stop-color="#000"/>
      <stop offset=".9994" stop-color="#000"/>
    </linearGradient>
    <linearGradient id="linear-gradient-14" x1="333.8251" y1="61.3841" x2="424.6322" y2="61.3841" gradientTransform="matrix(1, 0, 0, 1, 0, 0)" xlink:href="#linear-gradient-7"/>
    <linearGradient id="linear-gradient-15" x1="320.2103" y1="127.0968" x2="438.2471" y2="127.0968" gradientTransform="matrix(1, 0, 0, 1, 0, 0)" xlink:href="#linear-gradient-7"/>
    <linearGradient id="linear-gradient-16" x1="320.2103" y1="158.8072" x2="438.2471" y2="158.8072" gradientTransform="matrix(1, 0, 0, 1, 0, 0)" xlink:href="#linear-gradient-7"/>
    <linearGradient id="linear-gradient-17" x1="14194.1764" y1="16740.407" x2="14209.0628" y2="16740.407" gradientTransform="translate(14272.9379 17364.2911) rotate(-180)" xlink:href="#linear-gradient"/>
    <linearGradient id="linear-gradient-18" x1="-553.7328" y1="16740.407" x2="-538.8464" y2="16740.407" gradientTransform="translate(602.7215 17364.2911) scale(1 -1)" xlink:href="#linear-gradient"/>
    <linearGradient id="linear-gradient-19" x1="13846.8848" y1="16766.4404" x2="14167.2662" y2="16766.4404" gradientTransform="translate(14272.9379 17364.2911) rotate(-180)" xlink:href="#linear-gradient-3"/>
    <linearGradient id="linear-gradient-20" x1="13907.6887" y1="16593.9915" x2="14106.4622" y2="16593.9915" gradientTransform="translate(14272.9379 17364.2911) rotate(-180)" xlink:href="#linear-gradient-3"/>
    <linearGradient id="linear-gradient-21" x1="13863.9002" y1="16480.5902" x2="14150.2509" y2="16480.5902" gradientTransform="translate(14272.9379 17364.2911) rotate(-180)" xlink:href="#linear-gradient-3"/>
    <linearGradient id="linear-gradient-22" x1="13904.0746" y1="16480.5902" x2="13965.2353" y2="16480.5902" gradientTransform="translate(14272.9379 17364.2911) rotate(-180)" xlink:href="#linear-gradient-3"/>
    <linearGradient id="linear-gradient-23" x1="13127.5487" y1="16480.6216" x2="13189.1093" y2="16480.6216" gradientTransform="translate(15058.7318 17364.2911) rotate(-180) scale(1.1187 1)" xlink:href="#linear-gradient-7"/>
    <linearGradient id="linear-gradient-24" x1="13976.148" y1="16472.0364" x2="14038.003" y2="16472.0364" gradientTransform="translate(14272.9379 17364.2911) rotate(-180)" xlink:href="#linear-gradient-3"/>
    <linearGradient id="linear-gradient-25" x1="13192.4589" y1="16472.248" x2="13253.8327" y2="16472.248" gradientTransform="translate(15058.7318 17364.2911) rotate(-180) scale(1.1187 1)" xlink:href="#linear-gradient-9"/>
    <linearGradient id="linear-gradient-26" x1="-778.3623" y1="16481.5902" x2="-717.2017" y2="16481.5902" gradientTransform="translate(942.1925 17364.2911) scale(1 -1)" xlink:href="#linear-gradient-3"/>
    <linearGradient id="linear-gradient-27" x1="12.8684" y1="16481.6216" x2="74.429" y2="16481.6216" gradientTransform="translate(145.4896 17364.2911) scale(1.1187 -1)" xlink:href="#linear-gradient-11"/>
    <linearGradient id="linear-gradient-28" x1="13873.5228" y1="16587.3918" x2="13965.2353" y2="16587.3918" gradientTransform="translate(14272.9379 17364.2911) rotate(-180)" xlink:href="#linear-gradient-3"/>
    <linearGradient id="linear-gradient-29" x1="-827.159" y1="16587.3918" x2="-735.4466" y2="16587.3918" gradientTransform="translate(959.3187 17364.2911) scale(1 -1)" xlink:href="#linear-gradient-13"/>
    <linearGradient id="linear-gradient-30" x1="14163.6592" y1="16499.1549" x2="14254.4664" y2="16499.1549" gradientTransform="translate(14272.9379 17364.2911) rotate(-180)" xlink:href="#linear-gradient-7"/>
    <linearGradient id="linear-gradient-31" x1="14150.0444" y1="16564.8677" x2="14268.0812" y2="16564.8677" gradientTransform="translate(14272.9379 17364.2911) rotate(-180)" xlink:href="#linear-gradient-7"/>
    <linearGradient id="linear-gradient-32" x1="14150.0444" y1="16596.578" x2="14268.0812" y2="16596.578" gradientTransform="translate(14272.9379 17364.2911) rotate(-180)" xlink:href="#linear-gradient-7"/>
    <symbol id="Jack" viewBox="0 0 443.1038 926.5202">
      <g>
        <polygon class="cls-1" points="379.2287 165.6029 364.3423 172.4643 364.3423 439.6694 379.2287 439.6694 379.2287 165.6029"/>
        <polygon class="cls-21" points="379.2287 165.6029 394.1151 172.4643 394.1151 439.6694 379.2287 439.6694 379.2287 165.6029"/>
        <rect class="cls-9" x="336.432" y="370.0768" width="81.6575" height="17.3981"/>
        <rect class="cls-9" x="325.0456" y="387.475" width="108.3661" height="17.3981"/>
        <rect class="cls-9" x="329.7888" y="404.8731" width="88.5146" height="17.3981"/>
        <rect class="cls-9" x="356.432" y="422.2713" width="68.8147" height="17.3981"/>
        <polygon class="cls-8" points="252.2155 193.6069 252.2155 193.6069 194.9635 234.1809 159.4042 234.0994 102.2672 193.6069 17.0506 463.7322 176.8317 463.7322 177.651 463.7322 337.432 463.7322 252.2155 193.6069"/>
        <polygon class="cls-13" points="177.2413 78.5693 81.4863 95.2348 101.3729 181.8945 177.2413 233.2934 253.1098 181.8945 272.9964 95.2348 177.2413 78.5693"/>
        <polygon class="cls-22" points="177.2413 0 34.066 23.9194 67.8103 85.6386 177.2414 66.2186 286.6724 85.6386 320.4167 23.9194 177.2413 0"/>
        <polygon class="cls-11" points="74.2405 25.0418 93.9145 67.0961 135.4011 59.4499 118.2933 18.5425 74.2405 25.0418"/>
        <polygon class="cls-10" points="177.2414 10.2708 146.3139 15.9585 157.8191 58.2603 177.2414 54.3764 196.6636 58.2603 208.1689 15.9585 177.2414 10.2708"/>
        <polygon class="cls-15" points="279.2736 26.0418 259.5996 68.0961 218.113 60.4499 235.2209 19.5425 279.2736 26.0418"/>
        <path class="cls-27" d="M135.4011,82.8981l-57.5082,10.1952s13.3045,61.7101,4.8413,83.3988c-4.1207-2.9991-9.3745-4.8021-15.1026-4.8021-13.2233,0-23.9429,9.5821-23.9429,21.4023s10.7196,21.4023,23.9429,21.4023c4.6597,0,62.7994,27.7325,67.7695-131.5965Z"/>
        <path class="cls-26" d="M219.2317,82.8981l57.5082,10.1952s-13.3045,61.7101-4.8413,83.3988c4.1207-2.9991,9.3745-4.8021,15.1026-4.8021,13.2233,0,23.9429,9.5821,23.9429,21.4023,0,11.8201-10.7196,21.4023-23.9429,21.4023-4.6597,0-62.7994,27.7325-67.7695-131.5965Z"/>
        <polygon class="cls-4" points="379.2286 15.7664 338.3345 109.169 379.2286 96.0966 420.1229 109.169 379.2286 15.7664"/>
        <polygon class="cls-3" points="379.2287 106.4825 322.7103 124.1105 322.7103 146.7845 379.2287 126.6335 435.7471 146.7845 435.7471 124.1105 379.2287 106.4825"/>
        <polygon class="cls-2" points="379.2287 138.1928 322.7103 155.8208 322.7103 178.4948 379.2287 158.3438 435.7471 178.4948 435.7471 155.8208 379.2287 138.1928"/>
        <polygon class="cls-25" points="63.8751 760.9173 78.7615 754.0559 78.7615 486.8508 63.8751 486.8508 63.8751 760.9173"/>
        <polygon class="cls-23" points="63.8751 760.9173 48.9887 754.0559 48.9887 486.8508 63.8751 486.8508 63.8751 760.9173"/>
        <polygon class="cls-9" points="25.0143 539.0452 106.6718 539.0452 106.6718 556.4434 25.0143 556.4434 25.0143 539.0452"/>
        <polygon class="cls-9" points="9.6921 521.6471 118.0582 521.6471 118.0582 539.0452 9.6921 539.0452 9.6921 521.6471"/>
        <polygon class="cls-9" points="24.8004 504.2489 113.315 504.2489 113.315 521.6471 24.8004 521.6471 24.8004 504.2489"/>
        <polygon class="cls-9" points="37.8571 486.8508 106.6718 486.8508 106.6718 504.2489 37.8571 504.2489 37.8571 486.8508"/>
        <polygon class="cls-14" points="190.8883 732.9133 190.8883 732.9133 248.1403 692.3393 283.6996 692.4208 340.8366 732.9133 426.0532 462.788 266.2721 462.788 265.4528 462.788 105.6718 462.788 190.8883 732.9133"/>
        <polygon class="cls-12" points="265.8625 847.951 361.6175 831.2854 341.7309 744.6258 265.8625 693.2268 189.994 744.6258 170.1074 831.2854 265.8625 847.951"/>
        <polygon class="cls-24" points="265.8625 926.5202 409.0378 902.6008 375.2936 840.8816 265.8624 860.3016 156.4314 840.8816 122.6871 902.6008 265.8625 926.5202"/>
        <polygon class="cls-17" points="368.8633 901.4784 349.1893 859.4241 307.7027 867.0703 324.8106 907.9778 368.8633 901.4784"/>
        <polygon class="cls-16" points="265.8624 916.2495 296.7899 910.5618 285.2847 868.26 265.8625 872.1438 246.4402 868.26 234.9349 910.5618 265.8624 916.2495"/>
        <polygon class="cls-18" points="163.8302 900.4784 183.5042 858.4241 224.9908 866.0703 207.883 906.9778 163.8302 900.4784"/>
        <path class="cls-28" d="M307.7027,843.6221l57.5082-10.1952s-13.3045-61.7101-4.8413-83.3988c4.1207,2.9991,9.3745,4.8021,15.1026,4.8021,13.2233,0,23.9429-9.5821,23.9429-21.4023,0-11.8201-10.7196-21.4023-23.9429-21.4023-4.6597,0-62.7994-27.7325-67.7695,131.5965Z"/>
        <path class="cls-29" d="M223.8721,843.6221l-57.5082-10.1952s13.3045-61.7101,4.8413-83.3988c-4.1207,2.9991-9.3745,4.8021-15.1026,4.8021-13.2233,0-23.9429-9.5821-23.9429-21.4023,0-11.8201,10.7196-21.4023,23.9429-21.4023,4.6597,0,62.7994-27.7325,67.7695,131.5965Z"/>
        <polygon class="cls-5" points="63.8752 910.7539 104.7693 817.3513 63.8752 830.4237 22.9809 817.3513 63.8752 910.7539"/>
        <polygon class="cls-6" points="63.8751 820.0377 120.3935 802.4098 120.3935 779.7357 63.8751 799.8867 7.3567 779.7357 7.3567 802.4098 63.8751 820.0377"/>
        <polygon class="cls-7" points="63.8751 788.3274 120.3935 770.6994 120.3935 748.0254 63.8751 768.1764 7.3567 748.0254 7.3567 770.6994 63.8751 788.3274"/>
      </g>
    </symbol>
  </defs>
  <g id="Layer_5" data-name="Layer 5">
    <rect class="cls-19" width="837.0066" height="1192.4994" rx="71.1963" ry="71.1963"/>
    <use width="252.1667" height="232.5147" transform="translate(47.9491 262.7654) scale(.4513)" xlink:href="#Club"/>
    <use width="252.1667" height="232.5147" transform="translate(784.292 898.6275) rotate(-180) scale(.4513)" xlink:href="#Club"/>
    <use width="443.1038" height="926.5202" transform="translate(204.4954 131.5134)" xlink:href="#Jack"/>
    <use width="120.2059" height="181.989" transform="translate(53.0093 43.6563)" xlink:href="#Black_J"/>
    <use width="120.2059" height="181.989" transform="translate(793.475 1102.4667) rotate(-180)" xlink:href="#Black_J"/>
  </g>
</svg>