<?xml version="1.0" encoding="UTF-8"?>
<svg id="Layer_2" data-name="Layer 2" xmlns="http://www.w3.org/2000/svg" width="837.0066" height="1192.4994" xmlns:xlink="http://www.w3.org/1999/xlink" viewBox="0 0 837.0066 1192.4994">
  <defs>
    <style>
      .cls-1 {
        stroke: url(#linear-gradient-7);
      }

      .cls-1, .cls-2, .cls-3, .cls-4, .cls-5, .cls-6, .cls-7, .cls-8, .cls-9, .cls-10, .cls-11, .cls-12, .cls-13, .cls-14, .cls-15, .cls-16, .cls-17, .cls-18, .cls-19, .cls-20, .cls-21, .cls-22, .cls-23, .cls-24, .cls-25, .cls-26, .cls-27, .cls-28, .cls-29, .cls-30, .cls-31, .cls-32, .cls-33, .cls-34, .cls-35 {
        stroke-miterlimit: 10;
      }

      .cls-1, .cls-3, .cls-6, .cls-7, .cls-8, .cls-9, .cls-10, .cls-11, .cls-12, .cls-13, .cls-14, .cls-15, .cls-16, .cls-17, .cls-18, .cls-19, .cls-20, .cls-21, .cls-22, .cls-23, .cls-24, .cls-25, .cls-26, .cls-27, .cls-28, .cls-29, .cls-30, .cls-31, .cls-32, .cls-33, .cls-34, .cls-35 {
        stroke-linecap: square;
      }

      .cls-1, .cls-3, .cls-6, .cls-12, .cls-24, .cls-27, .cls-28, .cls-30, .cls-31, .cls-32, .cls-33, .cls-34 {
        stroke-width: 3px;
      }

      .cls-2, .cls-36, .cls-3, .cls-6, .cls-7, .cls-8, .cls-9, .cls-12, .cls-15, .cls-16, .cls-17, .cls-18, .cls-19, .cls-20, .cls-21, .cls-22, .cls-23, .cls-24, .cls-29 {
        fill: #cc2121;
      }

      .cls-2, .cls-4, .cls-5 {
        stroke: #fff;
      }

      .cls-2, .cls-7, .cls-8, .cls-9, .cls-10, .cls-11, .cls-13, .cls-14, .cls-15, .cls-16, .cls-17, .cls-18, .cls-19, .cls-20, .cls-21, .cls-22, .cls-23, .cls-25, .cls-26, .cls-29, .cls-35 {
        stroke-width: 5px;
      }

      .cls-37 {
        fill: url(#linear-gradient);
      }

      .cls-38 {
        fill: #fee06e;
      }

      .cls-39 {
        fill: #fff;
      }

      .cls-40 {
        fill: #a85c5c;
      }

      .cls-41, .cls-10, .cls-11, .cls-13, .cls-14 {
        fill: #c22;
      }

      .cls-3 {
        stroke: url(#radial-gradient-3);
      }

      .cls-4 {
        fill: url(#linear-gradient-2);
      }

      .cls-4, .cls-5 {
        stroke-width: 25px;
      }

      .cls-5 {
        fill: url(#linear-gradient-9);
      }

      .cls-6 {
        stroke: url(#radial-gradient-19);
      }

      .cls-7 {
        stroke: url(#radial-gradient-8);
      }

      .cls-8 {
        stroke: url(#radial-gradient-9);
      }

      .cls-9 {
        stroke: url(#radial-gradient-7);
      }

      .cls-10 {
        stroke: url(#radial-gradient-6);
      }

      .cls-11 {
        stroke: url(#radial-gradient-5);
      }

      .cls-12 {
        stroke: url(#linear-gradient-10);
      }

      .cls-13 {
        stroke: url(#radial-gradient-22);
      }

      .cls-14 {
        stroke: url(#radial-gradient-21);
      }

      .cls-15 {
        stroke: url(#radial-gradient-11);
      }

      .cls-16 {
        stroke: url(#radial-gradient-10);
      }

      .cls-17 {
        stroke: url(#radial-gradient-12);
      }

      .cls-18 {
        stroke: url(#radial-gradient-24);
      }

      .cls-19 {
        stroke: url(#radial-gradient-23);
      }

      .cls-20 {
        stroke: url(#radial-gradient-28);
      }

      .cls-21 {
        stroke: url(#radial-gradient-25);
      }

      .cls-22 {
        stroke: url(#radial-gradient-27);
      }

      .cls-23 {
        stroke: url(#radial-gradient-26);
      }

      .cls-24 {
        stroke: url(#linear-gradient-3);
      }

      .cls-42 {
        fill: url(#linear-gradient-8);
      }

      .cls-43 {
        fill: url(#linear-gradient-4);
      }

      .cls-44 {
        fill: url(#linear-gradient-6);
      }

      .cls-45 {
        fill: url(#linear-gradient-5);
      }

      .cls-25 {
        stroke: url(#radial-gradient-17);
      }

      .cls-25, .cls-26, .cls-35 {
        fill: none;
      }

      .cls-26 {
        stroke: url(#radial-gradient-13);
      }

      .cls-27 {
        stroke: url(#radial-gradient-4);
      }

      .cls-28 {
        stroke: url(#radial-gradient-2);
      }

      .cls-46 {
        fill: url(#linear-gradient-13);
      }

      .cls-47 {
        fill: url(#linear-gradient-12);
      }

      .cls-48 {
        fill: url(#linear-gradient-11);
      }

      .cls-29 {
        stroke: #fcebb8;
      }

      .cls-30 {
        stroke: url(#radial-gradient-14);
      }

      .cls-31 {
        stroke: url(#radial-gradient-18);
      }

      .cls-32 {
        stroke: url(#radial-gradient-15);
      }

      .cls-33 {
        stroke: url(#radial-gradient-16);
      }

      .cls-34 {
        stroke: url(#radial-gradient-20);
      }

      .cls-35 {
        stroke: url(#radial-gradient);
      }
    </style>
    <symbol id="Heart" viewBox="0 0 256.5537 261.0955">
      <g>
        <polygon class="cls-36" points="190.097 0 128.2769 50.9069 66.4567 0 0 57.2711 128.2769 261.0955 256.5537 57.2711 190.097 0"/>
        <polyline class="cls-40" points="66.4567 0 128.2769 261.0955 128.2769 50.9069"/>
        <polygon class="cls-40" points="190.097 0 128.2769 261.0955 256.5537 57.2711 190.097 0"/>
      </g>
    </symbol>
    <symbol id="Red_K" data-name="Red K" viewBox="0 0 168.5153 179.4338">
      <g>
        <rect class="cls-36" y="0" width="57.9001" height="179.4338"/>
        <polygon class="cls-36" points="109.1143 155.5276 109.3497 139.2324 135.4326 179.4338 146.0528 179.4338 70.8691 69.8315 38.3108 116.0379 81.2394 179.4338 123.478 179.4338 109.1143 155.5276"/>
        <polygon class="cls-36" points="162.5865 0 100.0498 79.8368 100.3168 61.3514 147.1024 0 131.3756 0 110.5142 27.4506 110.7569 14.7477 121.9646 0 115.8002 0 50.9865 80.1402 50.9865 149.3361 77.1924 116.0379 168.5153 0 162.5865 0"/>
      </g>
    </symbol>
    <linearGradient id="linear-gradient" x1="409.7512" y1="426.7479" x2="440.1818" y2="426.7479" gradientUnits="userSpaceOnUse">
      <stop offset="0" stop-color="#ffbf94"/>
      <stop offset=".0355" stop-color="#f9ae87"/>
      <stop offset=".126" stop-color="#ed886c"/>
      <stop offset=".2238" stop-color="#e36855"/>
      <stop offset=".329" stop-color="#da4e41"/>
      <stop offset=".4444" stop-color="#d43a33"/>
      <stop offset=".575" stop-color="#cf2b28"/>
      <stop offset=".7337" stop-color="#cc2322"/>
      <stop offset="1" stop-color="#cc2121"/>
    </linearGradient>
    <linearGradient id="linear-gradient-2" x1="14.887" y1="365.2002" x2="379.8255" y2="365.2002" xlink:href="#linear-gradient"/>
    <radialGradient id="radial-gradient" cx="199.1333" cy="46.8793" fx="199.1333" fy="46.8793" r="86.827" gradientUnits="userSpaceOnUse">
      <stop offset="0" stop-color="#fceecb"/>
      <stop offset="1" stop-color="#ffda4a"/>
    </radialGradient>
    <radialGradient id="radial-gradient-2" cx="186.4707" cy="49.6401" fx="186.4707" fy="49.6401" r="10.5452" gradientUnits="userSpaceOnUse">
      <stop offset="0" stop-color="#ffda4a"/>
      <stop offset="1" stop-color="#fceecb"/>
    </radialGradient>
    <radialGradient id="radial-gradient-3" cx="7903.6843" cy="-7874.4234" fx="7903.6843" fy="-7874.4234" r="21.5657" gradientTransform="translate(8094.7497 7913.5383) rotate(-180) scale(1 -1)" xlink:href="#radial-gradient-2"/>
    <radialGradient id="radial-gradient-4" cx="209.5419" cy="49.6401" fx="209.5419" fy="49.6401" r="10.5452" xlink:href="#radial-gradient-2"/>
    <linearGradient id="linear-gradient-3" x1="190.8528" y1="39.1147" x2="219.0413" y2="39.1147" gradientUnits="userSpaceOnUse">
      <stop offset="0" stop-color="#ffda4a"/>
      <stop offset="1" stop-color="#fceecb"/>
    </linearGradient>
    <radialGradient id="radial-gradient-5" cx="388.184" cy="212.6568" fx="388.184" fy="212.6568" r="124.1301" xlink:href="#radial-gradient"/>
    <radialGradient id="radial-gradient-6" cx="460.9619" cy="212.6568" fx="460.9619" fy="212.6568" r="124.1301" xlink:href="#radial-gradient"/>
    <radialGradient id="radial-gradient-7" cx="422.567" cy="263.2735" fx="422.567" fy="263.2735" r="77.2979" xlink:href="#radial-gradient"/>
    <radialGradient id="radial-gradient-8" cx="15606.6661" cy="263.2735" fx="15606.6661" fy="263.2735" r="77.2979" gradientTransform="translate(16033.6474) rotate(-180) scale(1 -1)" xlink:href="#radial-gradient"/>
    <linearGradient id="linear-gradient-4" x1="424.5157" y1="378.5287" x2="424.5157" y2="311.911" gradientUnits="userSpaceOnUse">
      <stop offset="0" stop-color="#ffda4a"/>
      <stop offset="1" stop-color="#fee27c"/>
    </linearGradient>
    <radialGradient id="radial-gradient-9" cx="-3285.2191" cy="8218.3032" fx="-3285.2191" fy="8218.3032" r="13.6948" gradientTransform="translate(8525.3288 -3132.1039) rotate(45)" xlink:href="#radial-gradient"/>
    <radialGradient id="radial-gradient-10" cx="-3296.8825" cy="8206.6399" fx="-3296.8825" fy="8206.6399" r="13.6948" gradientTransform="translate(8525.3288 -3132.1039) rotate(45)" gradientUnits="userSpaceOnUse">
      <stop offset="0" stop-color="#fceecb"/>
      <stop offset="1" stop-color="#fedf6a"/>
    </radialGradient>
    <radialGradient id="radial-gradient-11" cx="-3235.3531" cy="8169.5811" fx="-3235.3531" fy="8169.5811" r="13.6948" gradientTransform="translate(8525.3288 -3132.1039) rotate(45)" xlink:href="#radial-gradient"/>
    <radialGradient id="radial-gradient-12" cx="-3247.0164" cy="8157.9177" fx="-3247.0164" fy="8157.9177" r="13.6948" xlink:href="#radial-gradient-10"/>
    <linearGradient id="linear-gradient-5" x1="59.9759" y1="183.9316" x2="334.8151" y2="183.9316" xlink:href="#linear-gradient"/>
    <linearGradient id="linear-gradient-6" x1="176.9577" y1="371.5" x2="221.5289" y2="371.5" gradientUnits="userSpaceOnUse">
      <stop offset="0" stop-color="#fceecb"/>
      <stop offset="1" stop-color="#ffda4a"/>
    </linearGradient>
    <radialGradient id="radial-gradient-13" cx="15234.5952" cy="16267.8948" fx="15234.5952" fy="16267.8948" r="86.827" gradientTransform="translate(15545.0126 17227.1837) rotate(-180)" xlink:href="#radial-gradient"/>
    <radialGradient id="radial-gradient-14" cx="15221.9326" cy="16270.6556" fx="15221.9326" fy="16270.6556" r="10.5452" gradientTransform="translate(15545.0126 17227.1837) rotate(-180)" xlink:href="#radial-gradient-2"/>
    <radialGradient id="radial-gradient-15" cx="-7131.7776" cy="8346.5921" fx="-7131.7776" fy="8346.5921" r="21.5657" gradientTransform="translate(7450.2629 9313.6455) scale(1 -1)" xlink:href="#radial-gradient-2"/>
    <radialGradient id="radial-gradient-16" cx="15245.0039" cy="16270.6556" fx="15245.0039" fy="16270.6556" r="10.5452" gradientTransform="translate(15545.0126 17227.1837) rotate(-180)" xlink:href="#radial-gradient-2"/>
    <linearGradient id="linear-gradient-7" x1="15226.3148" y1="16260.1302" x2="15254.5033" y2="16260.1302" gradientTransform="translate(15545.0126 17227.1837) rotate(-180)" xlink:href="#linear-gradient-3"/>
    <linearGradient id="linear-gradient-8" x1="15093.6976" y1="19779.9969" x2="15124.1282" y2="19779.9969" gradientTransform="translate(15194.6386 20359.4173) rotate(-180)" xlink:href="#linear-gradient"/>
    <linearGradient id="linear-gradient-9" x1="14698.8334" y1="19718.4492" x2="15063.7719" y2="19718.4492" gradientTransform="translate(15194.6386 20359.4173) rotate(-180)" xlink:href="#linear-gradient"/>
    <radialGradient id="radial-gradient-17" cx="14883.0796" cy="19400.1283" fx="14883.0796" fy="19400.1283" r="86.827" gradientTransform="translate(15194.6386 20359.4173) rotate(-180)" xlink:href="#radial-gradient"/>
    <radialGradient id="radial-gradient-18" cx="14870.4171" cy="19402.8891" fx="14870.4171" fy="19402.8891" r="10.5452" gradientTransform="translate(15194.6386 20359.4173) rotate(-180)" xlink:href="#radial-gradient-2"/>
    <radialGradient id="radial-gradient-19" cx="-6780.2621" cy="11478.8256" fx="-6780.2621" fy="11478.8256" r="21.5657" gradientTransform="translate(7099.8889 12445.879) scale(1 -1)" xlink:href="#radial-gradient-2"/>
    <radialGradient id="radial-gradient-20" cx="14893.4883" cy="19402.8891" fx="14893.4883" fy="19402.8891" r="10.5452" gradientTransform="translate(15194.6386 20359.4173) rotate(-180)" xlink:href="#radial-gradient-2"/>
    <linearGradient id="linear-gradient-10" x1="14874.7992" y1="19392.3637" x2="14902.9877" y2="19392.3637" gradientTransform="translate(15194.6386 20359.4173) rotate(-180)" xlink:href="#linear-gradient-3"/>
    <radialGradient id="radial-gradient-21" cx="15072.1304" cy="19565.9058" fx="15072.1304" fy="19565.9058" r="124.1301" gradientTransform="translate(15194.6386 20359.4173) rotate(-180)" xlink:href="#radial-gradient"/>
    <radialGradient id="radial-gradient-22" cx="15144.9083" cy="19565.9058" fx="15144.9083" fy="19565.9058" r="124.1301" gradientTransform="translate(15194.6386 20359.4173) rotate(-180)" xlink:href="#radial-gradient"/>
    <radialGradient id="radial-gradient-23" cx="15106.5134" cy="19616.5225" fx="15106.5134" fy="19616.5225" r="77.2979" gradientTransform="translate(15194.6386 20359.4173) rotate(-180)" xlink:href="#radial-gradient"/>
    <radialGradient id="radial-gradient-24" cx="922.7197" cy="19616.5225" fx="922.7197" fy="19616.5225" r="77.2979" gradientTransform="translate(-839.0088 20359.4172) scale(1 -1)" xlink:href="#radial-gradient"/>
    <linearGradient id="linear-gradient-11" x1="15108.4621" y1="19731.7777" x2="15108.4621" y2="19665.16" gradientTransform="translate(15194.6386 20359.4173) rotate(-180)" xlink:href="#linear-gradient-4"/>
    <radialGradient id="radial-gradient-25" cx="20782.7125" cy="11519.9988" fx="20782.7125" fy="11519.9988" r="13.6948" gradientTransform="translate(6669.3099 23491.5212) rotate(-135)" xlink:href="#radial-gradient"/>
    <radialGradient id="radial-gradient-26" cx="20771.0492" cy="11508.3354" fx="20771.0492" fy="11508.3354" r="13.6948" gradientTransform="translate(6669.3099 23491.5212) rotate(-135)" xlink:href="#radial-gradient-10"/>
    <radialGradient id="radial-gradient-27" cx="20832.5786" cy="11471.2766" fx="20832.5786" fy="11471.2766" r="13.6948" gradientTransform="translate(6669.3099 23491.5212) rotate(-135)" xlink:href="#radial-gradient"/>
    <radialGradient id="radial-gradient-28" cx="20820.9152" cy="11459.6133" fx="20820.9152" fy="11459.6133" gradientTransform="translate(6669.3099 23491.5212) rotate(-135)" xlink:href="#radial-gradient-10"/>
    <linearGradient id="linear-gradient-12" x1="14743.9223" y1="19537.1806" x2="15018.7615" y2="19537.1806" gradientTransform="translate(15194.6386 20359.4173) rotate(-180)" xlink:href="#linear-gradient"/>
    <linearGradient id="linear-gradient-13" x1="14860.9041" y1="19724.749" x2="14905.4753" y2="19724.749" gradientTransform="translate(15194.6386 20359.4173) rotate(-180)" xlink:href="#linear-gradient-6"/>
    <symbol id="Red_King" data-name="Red King" viewBox="0 0 510.6922 1006.1682">
      <g>
        <g>
          <rect class="cls-37" x="409.7512" y="383.4975" width="30.4306" height="86.5007"/>
          <rect class="cls-2" x="371.3671" y="410.8269" width="81.6575" height="17.3981"/>
          <rect class="cls-2" x="371.3671" y="428.2251" width="96.9797" height="17.3981"/>
          <rect class="cls-2" x="328.1552" y="445.6232" width="125.0833" height="17.3981"/>
          <rect class="cls-2" x="315.0985" y="463.0214" width="125.0833" height="17.3981"/>
          <polygon class="cls-36" points="75.8592 95.3598 96.0671 12.4375 123.9402 12.4375 139.2703 59.1248 163.6915 53.8986 177.3938 0 197.392 0 197.2411 74.3348 75.8592 95.3598"/>
          <polygon class="cls-36" points="318.7739 95.3598 298.5659 12.4375 270.6929 12.4375 255.3627 59.1248 230.9415 53.8986 217.2393 0 197.2411 0 197.392 74.3348 318.7739 95.3598"/>
          <polygon class="cls-4" points="282.7575 230.1375 282.7575 230.1375 197.3563 283.2711 111.9551 230.1375 58.6869 250.9095 14.887 500.2629 196.8897 500.2629 197.823 500.2629 379.8255 500.2629 334.8151 244.4858 282.7575 230.1375"/>
          <polyline class="cls-35" points="311.3664 86.2341 295.2427 19.4106 276.6384 19.1006 260.5146 66.5415 224.2363 59.0998 212.1435 7.0078 183.6169 7.0078 171.5241 57.8595 136.6256 66.5415 120.9824 21.2711 100.5177 21.2711 86.8745 81.425"/>
          <line class="cls-28" x1="197.392" y1="55.0578" x2="175.5494" y2="44.2224"/>
          <polyline class="cls-3" points="181.9473 14.0282 199.1203 55.498 179.0695 28.4565"/>
          <line class="cls-27" x1="198.6206" y1="55.0578" x2="220.4632" y2="44.2224"/>
          <polyline class="cls-24" points="214.0652 14.0281 196.8921 55.4979 216.943 28.4563"/>
          <polygon class="cls-11" points="422.1646 49.6401 383.0805 112.0087 354.4824 381.8708 422.1646 381.8708 422.1646 49.6401"/>
          <polygon class="cls-10" points="426.9814 49.6401 466.0655 112.0087 494.6636 381.8708 426.9814 381.8708 426.9814 49.6401"/>
          <polygon class="cls-36" points="314.7423 83.8905 316.9885 90.9578 290.8908 86.1532 286.8479 81.4661 314.7423 83.8905"/>
          <polygon class="cls-36" points="82.0692 82.1312 79.8231 89.1985 105.9207 84.3939 109.9637 79.7067 82.0692 82.1312"/>
          <polyline class="cls-9" points="437.9423 365.2002 402.313 336.9636 447.8861 291.3906 397.248 240.7525 442.6671 195.3333 408.7039 161.3702"/>
          <polyline class="cls-7" points="411.6061 365.2002 447.2353 336.9636 401.6623 291.3906 452.3004 240.7525 406.8813 195.3333 440.8444 161.3702"/>
          <rect class="cls-36" x="387.0722" y="313.2079" width="79.2327" height="59.5461"/>
          <rect class="cls-41" x="395.3357" y="149.8815" width="55.6573" height="62.7057"/>
          <rect class="cls-38" x="419.4252" y="144.6599" width="10.1812" height="71.0955"/>
          <rect class="cls-43" x="419.4252" y="311.911" width="10.1812" height="66.6176"/>
          <polygon class="cls-8" points="391.1101 371.9451 375.2783 356.1133 391.1101 340.2815 406.9419 356.1133 391.1101 371.9451"/>
          <polygon class="cls-16" points="391.1101 355.4506 375.2783 339.6188 391.1101 323.787 406.9419 339.6188 391.1101 355.4506"/>
          <polygon class="cls-29" points="391.1101 341.2382 375.2783 325.4064 391.1101 309.5746 406.9419 325.4064 391.1101 341.2382"/>
          <polygon class="cls-15" points="460.8225 372.7539 444.9907 356.9222 460.8225 341.0904 476.6543 356.9222 460.8225 372.7539"/>
          <polygon class="cls-17" points="460.8225 356.2595 444.9907 340.4277 460.8225 324.5959 476.6543 340.4277 460.8225 356.2595"/>
          <polygon class="cls-29" points="460.8225 342.0471 444.9907 326.2153 460.8225 310.3835 476.6543 326.2153 460.8225 342.0471"/>
          <polygon class="cls-45" points="334.8151 117.4819 197.4716 86.1532 197.3563 86.2341 59.9759 117.4008 106.4086 232.9843 197.3563 281.71 197.3563 281.5673 288.2461 233.0105 334.8151 117.4819"/>
          <polygon class="cls-44" points="176.9577 297.3767 197.392 445.6232 221.5289 297.3767 199.2433 316.5766 176.9577 297.3767"/>
          <polygon class="cls-36" points="433.6915 910.8085 413.4835 993.7308 385.6105 993.7308 370.2803 947.0434 345.8592 952.2696 332.1569 1006.1682 312.1587 1006.1682 312.3096 931.8335 433.6915 910.8085"/>
          <polygon class="cls-36" points="190.7768 910.8085 210.9847 993.7308 238.8578 993.7308 254.1879 947.0434 278.6091 952.2696 292.3114 1006.1682 312.3096 1006.1682 312.1587 931.8335 190.7768 910.8085"/>
          <polyline class="cls-26" points="198.1843 919.9341 214.308 986.7576 232.9123 987.0677 249.036 939.6267 285.3144 947.0684 297.4072 999.1605 325.9338 999.1605 338.0266 948.3087 372.9251 939.6267 388.5683 984.8972 409.033 984.8972 422.6761 924.7433"/>
          <line class="cls-30" x1="312.1587" y1="951.1105" x2="334.0013" y2="961.9458"/>
          <polyline class="cls-32" points="327.6033 992.1401 310.4303 950.6702 330.4812 977.7118"/>
          <line class="cls-33" x1="310.93" y1="951.1105" x2="289.0874" y2="961.9458"/>
          <polyline class="cls-1" points="295.4855 992.1402 312.6585 950.6704 292.6077 977.7119"/>
          <polygon class="cls-36" points="194.8083 922.2778 192.5622 915.2104 218.6598 920.015 222.7028 924.7022 194.8083 922.2778"/>
          <polygon class="cls-36" points="427.4814 924.0371 429.7276 916.9698 403.6299 921.7744 399.587 926.4615 427.4814 924.0371"/>
          <g>
            <polygon class="cls-39" points="218.9006 226.5659 180.1583 226.5659 156.6356 244.2635 197.5893 270.4992 239.6085 243.4552 218.9006 226.5659"/>
            <polygon class="cls-39" points="197.392 115.7452 111.9625 173.6061 122.7284 222.542 135.9571 231.0165 170.8406 202.7751 227.728 202.7751 256.0607 232.8664 272.102 222.542 282.8679 173.6061 197.392 115.7452"/>
          </g>
        </g>
        <polygon class="cls-42" points="70.5104 536.17 100.941 536.17 100.941 622.6707 70.5104 622.6707 70.5104 536.17"/>
        <polygon class="cls-2" points="57.6676 577.9431 139.3251 577.9431 139.3251 595.3413 57.6676 595.3413 57.6676 577.9431"/>
        <polygon class="cls-2" points="42.3454 560.545 139.3251 560.545 139.3251 577.9431 42.3454 577.9431 42.3454 560.545"/>
        <polygon class="cls-2" points="57.4537 543.1468 182.537 543.1468 182.537 560.545 57.4537 560.545 57.4537 543.1468"/>
        <polygon class="cls-2" points="70.5104 525.7487 195.5937 525.7487 195.5937 543.1468 70.5104 543.1468 70.5104 525.7487"/>
        <polygon class="cls-36" points="434.8331 910.8085 414.6251 993.7308 386.7521 993.7308 371.4219 947.0434 347.0007 952.2696 333.2985 1006.1682 313.3003 1006.1682 313.4512 931.8335 434.8331 910.8085"/>
        <polygon class="cls-36" points="191.9184 910.8085 212.1263 993.7308 239.9994 993.7308 255.3295 947.0434 279.7507 952.2696 293.453 1006.1682 313.4512 1006.1682 313.3003 931.8335 191.9184 910.8085"/>
        <polygon class="cls-5" points="227.9347 776.0307 227.9348 776.0307 313.336 722.8971 398.7371 776.0307 452.0054 755.2588 495.8052 505.9054 313.8026 505.9054 312.8693 505.9054 130.8667 505.9054 175.8772 761.6825 227.9347 776.0307"/>
        <polyline class="cls-25" points="199.3259 919.9341 215.4496 986.7576 234.0539 987.0677 250.1776 939.6267 286.456 947.0684 298.5488 999.1605 327.0754 999.1605 339.1682 948.3087 374.0667 939.6267 389.7099 984.8972 410.1746 984.8972 423.8177 924.7433"/>
        <line class="cls-31" x1="313.3003" y1="951.1105" x2="335.1429" y2="961.9458"/>
        <polyline class="cls-6" points="328.7449 992.1401 311.5719 950.6702 331.6228 977.7118"/>
        <line class="cls-34" x1="312.0716" y1="951.1105" x2="290.229" y2="961.9458"/>
        <polyline class="cls-12" points="296.6271 992.1402 313.8001 950.6704 293.7492 977.7119"/>
        <polygon class="cls-14" points="88.5276 956.5282 127.6117 894.1596 156.2099 624.2974 88.5276 624.2974 88.5276 956.5282"/>
        <polygon class="cls-13" points="83.7109 956.5282 44.6268 894.1596 16.0286 624.2974 83.7109 624.2974 83.7109 956.5282"/>
        <polygon class="cls-36" points="195.9499 922.2778 193.7038 915.2104 219.8014 920.015 223.8444 924.7022 195.9499 922.2778"/>
        <polygon class="cls-36" points="428.623 924.0371 430.8692 916.9698 404.7715 921.7744 400.7286 926.4615 428.623 924.0371"/>
        <polyline class="cls-19" points="72.75 640.968 108.3792 669.2046 62.8062 714.7777 113.4443 765.4158 68.0252 810.8349 101.9883 844.798"/>
        <polyline class="cls-18" points="99.0862 640.968 63.4569 669.2046 109.0299 714.7777 58.3918 765.4158 103.811 810.8349 69.8478 844.798"/>
        <polygon class="cls-36" points="44.3873 633.4143 123.62 633.4143 123.62 692.9604 44.3873 692.9604 44.3873 633.4143"/>
        <polygon class="cls-41" points="59.6992 793.5811 115.3565 793.5811 115.3565 856.2867 59.6992 856.2867 59.6992 793.5811"/>
        <polygon class="cls-38" points="81.0859 790.4128 91.2671 790.4128 91.2671 861.5083 81.0859 861.5083 81.0859 790.4128"/>
        <polygon class="cls-48" points="81.0859 627.6396 91.2671 627.6396 91.2671 694.2572 81.0859 694.2572 81.0859 627.6396"/>
        <polygon class="cls-21" points="119.5821 634.2232 135.4139 650.055 119.5821 665.8867 103.7504 650.055 119.5821 634.2232"/>
        <polygon class="cls-23" points="119.5821 650.7177 135.4139 666.5494 119.5821 682.3812 103.7504 666.5494 119.5821 650.7177"/>
        <polygon class="cls-29" points="119.5821 664.9301 135.4139 680.7618 119.5821 696.5936 103.7504 680.7618 119.5821 664.9301"/>
        <polygon class="cls-22" points="49.8698 633.4143 65.7015 649.2461 49.8698 665.0779 34.038 649.2461 49.8698 633.4143"/>
        <polygon class="cls-20" points="49.8698 649.9088 65.7015 665.7406 49.8698 681.5723 34.038 665.7406 49.8698 649.9088"/>
        <polygon class="cls-29" points="49.8698 664.1212 65.7015 679.953 49.8698 695.7847 34.038 679.953 49.8698 664.1212"/>
        <polygon class="cls-47" points="175.8772 888.6864 313.2207 920.015 313.336 919.9341 450.7163 888.7674 404.2837 773.1839 313.336 724.4583 313.336 724.601 222.4461 773.1577 175.8772 888.6864"/>
        <polygon class="cls-46" points="333.7345 708.7915 313.3003 560.545 289.1634 708.7915 311.449 689.5916 333.7345 708.7915"/>
        <g>
          <polygon class="cls-39" points="291.7916 779.6024 330.5339 779.6024 354.0567 761.9047 313.1029 735.669 271.0838 762.713 291.7916 779.6024"/>
          <polygon class="cls-39" points="313.3003 890.4231 398.7298 832.5621 387.9638 783.6263 374.7352 775.1518 339.8516 803.3931 282.9643 803.3931 254.6316 773.3019 238.5902 783.6263 227.8244 832.5621 313.3003 890.4231"/>
        </g>
      </g>
    </symbol>
  </defs>
  <g id="Layer_5" data-name="Layer 5">
    <rect class="cls-39" width="837.0066" height="1192.4994" rx="71.1963" ry="71.1963"/>
    <use width="256.5537" height="261.0955" transform="translate(46.9591 274.3159) scale(.4513)" xlink:href="#Heart"/>
    <use width="256.5537" height="261.0955" transform="translate(785.282 905.077) rotate(-180) scale(.4513)" xlink:href="#Heart"/>
    <use width="510.6922" height="1006.1682" transform="translate(153.8531 98.0739)" xlink:href="#Red_King"/>
    <use width="168.5153" height="179.4338" transform="translate(48.8546 44.9339)" xlink:href="#Red_K"/>
    <use width="168.5153" height="179.4338" transform="translate(797.6297 1101.1891) rotate(-180)" xlink:href="#Red_K"/>
  </g>
</svg>