<?xml version="1.0" encoding="UTF-8"?>
<svg id="Layer_2" data-name="Layer 2" xmlns="http://www.w3.org/2000/svg" width="4381.8237" height="1882.5405" viewBox="0 0 4381.8237 1882.5405">
  <defs>
    <style>
      .cls-1 {
        fill: #43a143;
      }
    </style>
  </defs>
  <g id="Layer_11" data-name="Layer 11">
    <g>
      <path class="cls-1" d="M264.7368,1882.0405c-70.5801,0-136.9365-27.4854-186.8438-77.3926S.4995,1688.3843,.4995,1617.8042V264.7368C.4995,194.1567,27.9849,127.8013,77.8931,77.894,127.8003,27.9858,194.1567,.5005,264.7368,.5005h3852.3506c70.5801,0,136.9355,27.4854,186.8428,77.3936,49.9082,49.9072,77.3936,116.2627,77.3936,186.8428V1617.8042c0,70.5801-27.4854,136.9355-77.3936,186.8438s-116.2627,77.3926-186.8428,77.3926H264.7368Z"/>
      <path d="M4117.0874,1c35.604,0,70.1431,6.9727,102.6577,20.7256,31.4053,13.2832,59.6104,32.2993,83.832,56.521,24.2212,24.2217,43.2378,52.4268,56.521,83.8325,13.7529,32.5137,20.7256,67.0532,20.7256,102.6577V1617.8047c0,35.604-6.9727,70.1431-20.7256,102.6577-13.2832,31.4048-32.2998,59.6104-56.521,83.8315s-52.4268,43.2378-83.832,56.521c-32.5146,13.7529-67.0537,20.7256-102.6577,20.7256H264.7366c-35.6045,0-70.1438-6.9727-102.6577-20.7256-31.4055-13.2832-59.6106-32.2993-83.8323-56.521-24.2217-24.2212-43.2378-52.4268-56.521-83.8315-13.7529-32.5146-20.7256-67.0537-20.7256-102.6577V264.7368c0-35.6045,6.9727-70.144,20.7256-102.6577,13.2832-31.4058,32.2993-59.6108,56.521-83.8325s52.4268-43.2378,83.8323-56.521C194.5928,7.9727,229.1321,1,264.7366,1h3852.3508m0-1H264.7366C118.5266,0,0,118.5269,0,264.7368V1617.8047c0,146.209,118.5266,264.7358,264.7366,264.7358h3852.3508c146.209,0,264.7363-118.5269,264.7363-264.7358V264.7368c0-146.21-118.5273-264.7368-264.7363-264.7368h0Z"/>
    </g>
  </g>
</svg>