<?xml version="1.0" encoding="UTF-8"?>
<svg id="Layer_2" data-name="Layer 2" xmlns="http://www.w3.org/2000/svg" width="837.0066" height="1192.4994" xmlns:xlink="http://www.w3.org/1999/xlink" viewBox="0 0 837.0066 1192.4994">
  <defs>
    <style>
      .cls-1 {
        fill: #fff;
      }

      .cls-2 {
        fill: #333;
      }
    </style>
    <symbol id="Black_10" data-name="Black 10" viewBox="0 0 198.9506 175.8402">
      <g>
        <path d="M18.6871,98.1017"/>
        <path d="M18.6871,98.1017"/>
        <path d="M87.0228,3.1332V172.707h111.9278V3.1332H87.0228Zm71.8421,148.8332h-32.5074V23.5603h32.5074V151.9664Zm24.4065-7.711h-10.7437V65.4528h10.7437v78.8026Z"/>
        <polygon points="61.648 175.8402 61.648 0 38.2877 0 0 24.1071 0 62.7764 35.7269 41.1855 39.7969 47.9201 0 71.9707 0 75.1575 23.1616 61.4496 23.1616 175.8402 61.648 175.8402"/>
      </g>
    </symbol>
    <symbol id="Spade" viewBox="0 0 285.5324 271.7601">
      <g>
        <polygon points="285.5324 183.2928 242.6122 97.1964 172.6183 128.7681 219.6657 49.9247 142.7661 0 74.4492 57.5811 112.9141 128.7681 42.9201 97.1964 0 183.2928 87.0237 212.3293 112.9141 167.8122 95.6276 271.7601 142.7661 271.7601 189.9048 271.7601 172.6183 167.8122 198.5087 212.3293 285.5324 183.2928"/>
        <polygon class="cls-2" points="142.7661 0 112.9141 128.7681 74.4492 57.5811 142.7661 0"/>
        <polygon class="cls-2" points="142.7661 0 142.7661 271.7601 189.9048 271.7601 172.6183 167.8122 198.5087 212.3293 246.7453 178.862 242.6122 97.1964 172.6183 128.7681 142.7661 0"/>
      </g>
    </symbol>
  </defs>
  <g id="Layer_5" data-name="Layer 5">
    <rect class="cls-1" width="837.0066" height="1192.4994" rx="71.1963" ry="71.1963"/>
    <use width="285.5324" height="271.7601" transform="translate(40.4199 271.9093) scale(.4513)" xlink:href="#Spade"/>
    <use width="285.5324" height="271.7601" transform="translate(791.8213 907.4836) rotate(-180) scale(.4513)" xlink:href="#Spade"/>
    <use width="198.9506" height="175.8402" transform="translate(33.6369 46.7307)" xlink:href="#Black_10"/>
    <use width="198.9506" height="175.8402" transform="translate(812.8473 1099.3923) rotate(-180)" xlink:href="#Black_10"/>
    <use width="285.5324" height="271.7601" transform="translate(175.7349 253.6035) scale(.6466)" xlink:href="#Spade"/>
    <use width="285.5324" height="271.7601" transform="translate(175.7349 474.969) scale(.6466)" xlink:href="#Spade"/>
    <use width="285.5324" height="271.7601" transform="translate(360.3525 1089.1471) rotate(-180) scale(.6466)" xlink:href="#Spade"/>
    <use width="285.5324" height="271.7601" transform="translate(360.3524 872.0472) rotate(-180) scale(.6466)" xlink:href="#Spade"/>
    <use width="285.5324" height="271.7601" transform="translate(464.3105 904.2255) scale(.6466 -.6466)" xlink:href="#Spade"/>
    <use width="285.5324" height="271.7601" transform="translate(464.3105 682.8601) scale(.6466 -.6466)" xlink:href="#Spade"/>
    <use width="285.5324" height="271.7601" transform="translate(648.9281 68.682) rotate(-180) scale(.6466 -.6466)" xlink:href="#Spade"/>
    <use width="285.5324" height="271.7601" transform="translate(648.928 285.7819) rotate(-180) scale(.6466 -.6466)" xlink:href="#Spade"/>
    <use width="285.5324" height="271.7601" transform="translate(326.1945 382.5142) scale(.6466)" xlink:href="#Spade"/>
    <use width="285.5324" height="271.7601" transform="translate(326.1945 784.1908) scale(.6466 -.6466)" xlink:href="#Spade"/>
  </g>
</svg>